<svg width="20" height="28" viewBox="0 0 20 28" fill="none" xmlns="http://www.w3.org/2000/svg">
<path d="M8.4 0C12 0 14.7 0.45 16.5 1.5C18.45 2.55 19.35 4.35 19.35 6.9C19.35 8.4 18.9 9.75 18.3 10.8C17.9599 11.3129 17.5181 11.7506 17.0021 12.086C16.4861 12.4214 15.9068 12.6474 15.3 12.75C16.1575 12.9503 16.9709 13.3062 17.7 13.8C18.3 14.25 18.9 15 19.35 15.75C19.8194 16.8365 20.025 18.0188 19.95 19.2C20.003 20.2837 19.7998 21.3646 19.3567 22.355C18.9136 23.3454 18.2433 24.2173 17.4 24.9C15.2647 26.425 12.6687 27.1667 10.05 27H0V0H8.4ZM9 10.65C10.65 10.65 11.85 10.5 12.45 9.9C13.2 9.45 13.5 8.55 13.5 7.65C13.5 6.6 13.05 5.85 12.3 5.4C11.55 4.95 10.35 4.65 8.7 4.65H5.7V10.65H9ZM5.7 15.15V22.5H9.45C11.1 22.5 12.45 22.05 13.05 21.45C13.8 20.7 14.1 19.95 14.1 18.75C14.1179 18.2966 14.0327 17.845 13.8508 17.4293C13.6689 17.0136 13.3951 16.6446 13.05 16.35C12.3 15.75 11.1 15.45 9.3 15.45H5.55L5.7 15.15Z" fill="#E6E6E6"/>
</svg>
