<svg width="37" height="37" viewBox="0 0 37 37" fill="none" xmlns="http://www.w3.org/2000/svg">
<path d="M14 6.125C14 5.82663 14.1185 5.54048 14.3295 5.32951C14.5405 5.11853 14.8266 5 15.125 5H35.375C35.6734 5 35.9595 5.11853 36.1705 5.32951C36.3815 5.54048 36.5 5.82663 36.5 6.125C36.5 6.42337 36.3815 6.70952 36.1705 6.92049C35.9595 7.13147 35.6734 7.25 35.375 7.25H15.125C14.8266 7.25 14.5405 7.13147 14.3295 6.92049C14.1185 6.70952 14 6.42337 14 6.125ZM14 19.625C14 19.3266 14.1185 19.0405 14.3295 18.8295C14.5405 18.6185 14.8266 18.5 15.125 18.5H35.375C35.6734 18.5 35.9595 18.6185 36.1705 18.8295C36.3815 19.0405 36.5 19.3266 36.5 19.625C36.5 19.9234 36.3815 20.2095 36.1705 20.4205C35.9595 20.6315 35.6734 20.75 35.375 20.75H15.125C14.8266 20.75 14.5405 20.6315 14.3295 20.4205C14.1185 20.2095 14 19.9234 14 19.625ZM14 33.125C14 32.8266 14.1185 32.5405 14.3295 32.3295C14.5405 32.1185 14.8266 32 15.125 32H35.375C35.6734 32 35.9595 32.1185 36.1705 32.3295C36.3815 32.5405 36.5 32.8266 36.5 33.125C36.5 33.4234 36.3815 33.7095 36.1705 33.9205C35.9595 34.1315 35.6734 34.25 35.375 34.25H15.125C14.8266 34.25 14.5405 34.1315 14.3295 33.9205C14.1185 33.7095 14 33.4234 14 33.125ZM0.5 30.875C0.5 29.9799 0.855579 29.1214 1.48851 28.4885C2.12145 27.8556 2.97989 27.5 3.875 27.5H6.125C7.02011 27.5 7.87855 27.8556 8.51149 28.4885C9.14442 29.1214 9.5 29.9799 9.5 30.875V33.125C9.5 34.0201 9.14442 34.8785 8.51149 35.5115C7.87855 36.1444 7.02011 36.5 6.125 36.5H3.875C2.97989 36.5 2.12145 36.1444 1.48851 35.5115C0.855579 34.8785 0.5 34.0201 0.5 33.125V30.875ZM0.5 17.375C0.5 16.4799 0.855579 15.6214 1.48851 14.9885C2.12145 14.3556 2.97989 14 3.875 14H6.125C7.02011 14 7.87855 14.3556 8.51149 14.9885C9.14442 15.6214 9.5 16.4799 9.5 17.375V19.625C9.5 20.5201 9.14442 21.3786 8.51149 22.0115C7.87855 22.6444 7.02011 23 6.125 23H3.875C2.97989 23 2.12145 22.6444 1.48851 22.0115C0.855579 21.3786 0.5 20.5201 0.5 19.625V17.375ZM0.5 3.875C0.5 2.97989 0.855579 2.12145 1.48851 1.48851C2.12145 0.855579 2.97989 0.5 3.875 0.5H6.125C7.02011 0.5 7.87855 0.855579 8.51149 1.48851C9.14442 2.12145 9.5 2.97989 9.5 3.875V6.125C9.5 7.02011 9.14442 7.87855 8.51149 8.51149C7.87855 9.14442 7.02011 9.5 6.125 9.5H3.875C2.97989 9.5 2.12145 9.14442 1.48851 8.51149C0.855579 7.87855 0.5 7.02011 0.5 6.125V3.875Z" fill="#E6E6E6"/>
</svg>
