<svg width="35" height="35" viewBox="0 0 35 35" fill="none" xmlns="http://www.w3.org/2000/svg">
<path d="M1.94444 0H33.0556C33.5713 0 34.0658 0.20486 34.4305 0.569514C34.7951 0.934169 35 1.42875 35 1.94444V33.0556C35 33.5713 34.7951 34.0658 34.4305 34.4305C34.0658 34.7951 33.5713 35 33.0556 35H1.94444C1.42875 35 0.934169 34.7951 0.569514 34.4305C0.20486 34.0658 0 33.5713 0 33.0556V1.94444C0 1.42875 0.20486 0.934169 0.569514 0.569514C0.934169 0.20486 1.42875 0 1.94444 0ZM15.5614 25.2778L29.3086 11.5286L26.5611 8.77917L15.5614 19.7789L10.0606 14.2781L7.31111 17.0275L15.5614 25.2778Z" fill="#E6E6E6"/>
</svg>
