<svg width="39" height="36" viewBox="0 0 39 36" fill="none" xmlns="http://www.w3.org/2000/svg">
<path d="M0 17.6961V15.1601H2.49167C4.98333 15.1601 4.98333 15.1601 4.98333 12.646V6.59023C4.96538 5.63893 5.03063 4.6879 5.17833 3.74818C5.29586 3.20076 5.51652 2.68123 5.82833 2.21784C6.32497 1.51744 7.03127 0.996347 7.84333 0.731228C9.32456 0.239077 10.8775 0.00256545 12.4367 0.0316457H14.9933V2.54577H13.13C12.6949 2.52935 12.2619 2.61338 11.8639 2.79145C11.4659 2.96952 11.1134 3.23692 10.8333 3.57328C10.2356 4.33262 9.9557 5.29761 10.0533 6.2623V10.9626C10.1998 12.2485 9.98975 13.5502 9.44667 14.7229C8.78279 15.6148 7.80616 16.217 6.71667 16.4062C7.80131 16.6359 8.76925 17.2483 9.44667 18.1333C9.96852 19.3121 10.1632 20.6118 10.01 21.8936V28.7801C9.92317 29.7441 10.2193 30.7035 10.8333 31.4473C11.1168 31.791 11.4761 32.0629 11.8824 32.2413C12.2888 32.4198 12.7309 32.4997 13.1733 32.4748H15.0583V35.0107H12.4367C10.8809 35.0652 9.32742 34.8508 7.84333 34.3768C7.02065 34.0972 6.31237 33.5516 5.82833 32.8246C5.50611 32.3509 5.28478 31.8149 5.17833 31.2505C5.04148 30.3244 4.98349 29.3882 5.005 28.4522V20.2102C5.005 17.6961 5.005 17.6961 2.51333 17.6961H0ZM39 17.6961V15.1601H36.5083C34.0167 15.1601 34.0167 15.1601 34.0167 12.646V6.59023C34.0444 5.62501 33.9864 4.65923 33.8433 3.70445C33.7339 3.13419 33.5129 2.59166 33.1933 2.10853C32.6967 1.40813 31.9904 0.887037 31.1783 0.621918C29.6839 0.164344 28.1236 -0.0352205 26.5633 0.0316457H24.0067V2.54577H25.8917C26.3231 2.5327 26.7519 2.61835 27.1459 2.7963C27.5399 2.97425 27.8889 3.23988 28.1667 3.57328C28.7644 4.33262 29.0443 5.29761 28.9467 6.2623V10.9626C28.8002 12.2485 29.0103 13.5502 29.5533 14.7229C30.2172 15.6148 31.1938 16.217 32.2833 16.4062C31.1987 16.6359 30.2307 17.2483 29.5533 18.1333C29.0315 19.3121 28.8368 20.6118 28.99 21.8936V28.7801C29.0768 29.7441 28.7807 30.7035 28.1667 31.4473C27.8832 31.791 27.5239 32.0629 27.1176 32.2413C26.7112 32.4198 26.2691 32.4997 25.8267 32.4748H23.9417V35.0107H26.52C28.0757 35.0652 29.6293 34.8508 31.1133 34.3768C31.9268 34.1144 32.6339 33.5928 33.1283 32.8901C33.4506 32.4165 33.6719 31.8805 33.7783 31.3161C33.9334 30.3697 34.0059 29.4114 33.995 28.4522V20.2102C33.995 17.6961 33.995 17.6961 36.4867 17.6961H39Z" fill="#E6E6E6"/>
</svg>
