<svg width="40" height="26" viewBox="0 0 40 26" fill="none" xmlns="http://www.w3.org/2000/svg">
<path d="M18.7375 25.5V1.0025H15.435V11.3775H3.3V1H0V25.5H3.3V14.2825H15.435V25.5H18.7375ZM26.6725 7.8225V7.6975C26.6725 5.3625 28.3225 3.3175 31.175 3.3175C33.6875 3.3175 35.575 4.915 35.575 7.445C35.575 9.69 34.12 11.395 32.775 12.92L23.55 23.42V25.5H39.3775V22.6275H28.2325V22.43L34.75 14.965C37.0475 12.345 38.915 10.28 38.915 7.2125C38.9125 3.3725 35.875 0.5 31.2475 0.5C26.15 0.5 23.46 3.9825 23.46 7.6975V7.8225H26.6725Z" fill="#E6E6E6"/>
</svg>
