<svg width="39" height="25" viewBox="0 0 39 25" fill="none" xmlns="http://www.w3.org/2000/svg">
<path d="M27.675 13.5003H30.2975C33.2325 13.5003 35.2725 15.2253 35.3075 17.8103C35.3425 20.3953 33.3025 22.2753 30.1375 22.2578C27.3625 22.2403 25.375 20.7453 25.1625 18.8653H22.1375C22.315 22.2753 25.29 25.0003 30.07 25.0003C35.045 25.0003 38.6675 22.0303 38.58 17.8253C38.51 13.9428 35.3625 12.2728 33.34 12.0428V11.8678C35.15 11.5503 37.875 9.53034 37.77 6.13534C37.6825 2.65534 34.745 -0.0346623 30.175 0.00033767C25.3575 0.0178377 22.825 2.99034 22.7225 6.06534H25.7975C25.9575 4.29034 27.6275 2.72534 30.1575 2.72534C32.725 2.72534 34.5175 4.32534 34.5175 6.64534C34.535 9.02034 32.6725 10.7428 30.1575 10.7428H27.68V13.5003H27.675ZM18.7375 25.0003V0.502838H15.435V10.8778H3.3V0.500338H0V25.0003H3.3V13.7828H15.435V25.0003H18.7375Z" fill="#E6E6E6"/>
</svg>
