<svg width="35" height="3" viewBox="0 0 35 3" fill="none" xmlns="http://www.w3.org/2000/svg">
<path d="M-6.55671e-08 1.5C-8.29565e-08 1.10218 0.197544 0.720646 0.549175 0.439342C0.900805 0.158037 1.37772 1.37029e-06 1.875 1.34855e-06L33.125 -1.74283e-08C33.6223 -3.91651e-08 34.0992 0.158036 34.4508 0.43934C34.8025 0.720645 35 1.10217 35 1.5C35 1.89782 34.8025 2.27935 34.4508 2.56066C34.0992 2.84196 33.6223 3 33.125 3L1.875 3C1.37772 3 0.900806 2.84196 0.549175 2.56066C0.197544 2.27936 -4.81776e-08 1.89783 -6.55671e-08 1.5Z" fill="#E6E6E6"/>
</svg>
