<svg width="34" height="34" viewBox="0 0 34 34" fill="none" xmlns="http://www.w3.org/2000/svg">
<path d="M0 0H33.3333V33.3333H0V0ZM3.33333 30H25.9767L11.6667 15.69L3.33333 24.0233V30ZM30 29.31V3.33333H3.33333V19.31L11.6667 10.9767L30 29.31ZM22.5783 8.33333C22.1363 8.33333 21.7124 8.50893 21.3998 8.82149C21.0873 9.13405 20.9117 9.55797 20.9117 10C20.9117 10.442 21.0873 10.866 21.3998 11.1785C21.7124 11.4911 22.1363 11.6667 22.5783 11.6667C23.0204 11.6667 23.4443 11.4911 23.7568 11.1785C24.0694 10.866 24.245 10.442 24.245 10C24.245 9.55797 24.0694 9.13405 23.7568 8.82149C23.4443 8.50893 23.0204 8.33333 22.5783 8.33333ZM17.5783 10C17.5783 8.67392 18.1051 7.40215 19.0428 6.46447C19.9805 5.52678 21.2523 5 22.5783 5C23.9044 5 25.1762 5.52678 26.1139 6.46447C27.0515 7.40215 27.5783 8.67392 27.5783 10C27.5783 11.3261 27.0515 12.5979 26.1139 13.5355C25.1762 14.4732 23.9044 15 22.5783 15C21.2523 15 19.9805 14.4732 19.0428 13.5355C18.1051 12.5979 17.5783 11.3261 17.5783 10Z" fill="#E6E6E6"/>
</svg>
