<svg width="29" height="32" viewBox="0 0 29 32" fill="none" xmlns="http://www.w3.org/2000/svg">
<path d="M6.82704 10.8347L2.3192 15.3426C1.58772 16.0643 1.00623 16.9236 0.608217 17.871C0.210202 18.8184 0.00352447 19.8352 8.18667e-05 20.8628C-0.00336074 21.8904 0.196501 22.9085 0.588159 23.8586C0.979817 24.8086 1.55554 25.6718 2.28216 26.3985C3.00879 27.1251 3.87198 27.7008 4.82203 28.0925C5.77207 28.4841 6.7902 28.684 7.81781 28.6805C8.84541 28.6771 9.86218 28.4704 10.8096 28.0724C11.757 27.6744 12.6163 27.0929 13.338 26.3614L14.8397 24.8597C15.0427 24.6638 15.2047 24.4294 15.3162 24.1702C15.4277 23.911 15.4865 23.6322 15.4891 23.35C15.4916 23.0679 15.438 22.788 15.3313 22.5268C15.2246 22.2656 15.0669 22.0283 14.8675 21.8287C14.668 21.6291 14.4308 21.4712 14.1697 21.3642C13.9086 21.2572 13.6288 21.2033 13.3467 21.2056C13.0645 21.208 12.7857 21.2665 12.5264 21.3777C12.267 21.4889 12.0325 21.6507 11.8364 21.8536L10.3319 23.3567C9.66659 24.016 8.76724 24.3849 7.83062 24.3827C6.894 24.3805 5.99638 24.0074 5.33418 23.345C4.67199 22.6826 4.29913 21.7849 4.29721 20.8483C4.2953 19.9117 4.66447 19.0124 5.32395 18.3473L9.83178 13.8395C10.319 13.3521 10.9379 13.0174 11.6125 12.8764C12.2872 12.7355 12.9883 12.7945 13.6299 13.0462C13.8584 13.1368 14.0728 13.2294 14.273 13.3238L14.9304 13.6312C15.8087 14.0279 16.4845 14.1979 17.3444 13.3394C18.5797 12.1041 18.2595 10.9637 16.7536 9.92525C15.2535 8.89301 13.4392 8.41878 11.6259 8.58492C9.8125 8.75107 8.1146 9.54709 6.82704 10.8347ZM15.3412 2.32058L13.8395 3.82225C13.4523 4.22284 13.2378 4.75952 13.2424 5.3167C13.247 5.87387 13.4702 6.40695 13.864 6.80113C14.2578 7.19531 14.7907 7.41905 15.3479 7.42415C15.905 7.42925 16.4419 7.21532 16.8429 6.82842L18.346 5.32675C18.6726 4.98839 19.0633 4.71847 19.4953 4.53273C19.9274 4.347 20.3921 4.24917 20.8623 4.24495C21.3326 4.24073 21.799 4.33021 22.2343 4.50816C22.6696 4.68612 23.0651 4.94898 23.3977 5.28143C23.7304 5.61387 23.9935 6.00923 24.1717 6.44443C24.3499 6.87964 24.4396 7.34598 24.4357 7.81624C24.4317 8.2865 24.3341 8.75126 24.1486 9.18341C23.9632 9.61556 23.6935 10.0064 23.3553 10.3332L18.8475 14.8411C18.3602 15.3285 17.7414 15.6632 17.0667 15.8041C16.3921 15.9451 15.691 15.8861 15.0494 15.6344C14.8208 15.5437 14.6064 15.4512 14.4062 15.3567L13.7489 15.0493C12.8705 14.6527 12.1934 14.4827 11.3349 15.3412C10.0995 16.5765 10.4197 17.7169 11.9256 18.7553C13.4257 19.7876 15.24 20.2618 17.0534 20.0957C18.8667 19.9295 20.5646 19.1335 21.8522 17.8458L26.36 13.338C27.0915 12.6163 27.673 11.7569 28.071 10.8095C28.469 9.86215 28.6757 8.84537 28.6792 7.81777C28.6826 6.79017 28.4827 5.77203 28.0911 4.82199C27.6994 3.87194 27.1237 3.00876 26.3971 2.28213C25.6704 1.5555 24.8073 0.979779 23.8572 0.588121C22.9072 0.196463 21.889 -0.00339888 20.8614 4.3728e-05C19.8338 0.00348634 18.8171 0.210165 17.8697 0.60818C16.9223 1.00619 16.0629 1.5891 15.3412 2.32058Z" fill="#E6E6E6"/>
</svg>
