<svg width="37" height="35" viewBox="0 0 37 35" fill="none" xmlns="http://www.w3.org/2000/svg">
<path d="M4.00272 9.53409C4.71881 9.53409 5.19672 9.0768 5.19672 8.14271V1.43392C5.19672 0.560985 4.64516 0 3.85621 0C3.19497 0 2.7907 0.249032 2.33159 0.602639L1.04671 1.62003C0.660461 1.91072 0.45911 2.18102 0.45911 2.61705C0.45911 3.15765 0.844575 3.53075 1.26608 3.53075C1.48702 3.53075 1.6155 3.4891 1.92811 3.24007L2.77268 2.59666H2.7907V8.14182C2.7907 9.0768 3.28663 9.53409 4.00272 9.53409ZM10.3746 7.01985H35.5129C36.3575 7.01985 36.9999 6.29314 36.9999 5.35816C36.9999 4.40281 36.3575 3.67521 35.5129 3.67521H10.3746C9.54808 3.67521 8.90564 4.40192 8.90564 5.35816C8.90564 6.29225 9.54808 7.01985 10.3746 7.01985ZM1.04671 22.0592H5.76552C6.27947 22.0592 6.64691 21.664 6.64691 21.0826C6.64691 20.4596 6.27947 20.0652 5.76552 20.0652H3.14013V20.0032L4.64516 18.6313C5.91202 17.4685 6.38994 16.8039 6.38994 15.5782C6.38994 13.9165 5.1599 12.7954 3.17617 12.7954C1.43217 12.7954 0.146508 13.8332 0.146508 15.1626C0.146508 15.8272 0.531972 16.1808 1.15718 16.1808C1.57868 16.1808 1.87248 16.0355 2.11144 15.5578C2.36841 15.0589 2.71706 14.7886 3.21299 14.7886C3.76376 14.7886 4.13121 15.1838 4.13121 15.7652C4.13121 16.2641 3.91106 16.7002 2.97482 17.5518L0.550776 19.794C0.202134 20.1272 0.0548423 20.5012 0.0548423 20.9576C0.0548423 21.6019 0.440307 22.0592 1.04671 22.0592ZM10.3746 19.5857H35.5129C35.7088 19.5884 35.9032 19.5466 36.0847 19.463C36.2661 19.3794 36.431 19.2556 36.5695 19.0989C36.7081 18.9422 36.8175 18.7557 36.8914 18.5505C36.9653 18.3452 37.0022 18.1253 36.9999 17.9037C36.9999 16.9687 36.3575 16.242 35.5129 16.242H10.3746C9.54808 16.242 8.90564 16.9687 8.90564 17.9037C8.90564 18.8387 9.54808 19.5857 10.3746 19.5857ZM3.23179 35C5.39807 35 6.70254 33.8993 6.70254 32.1552C6.70254 31.0119 5.98567 30.2232 4.71881 30.0982V30.0362C5.65505 29.8492 6.37192 29.1429 6.37192 27.9376C6.37192 26.3601 5.01261 25.4872 3.21299 25.4872C1.7628 25.4872 0.202134 26.2555 0.202134 27.6265C0.202134 28.2079 0.568795 28.6235 1.13837 28.6235C1.54186 28.6235 1.72597 28.4366 1.98295 28.1246C2.40524 27.6053 2.75388 27.4395 3.19497 27.4395C3.76376 27.4395 4.18605 27.7506 4.18605 28.3736C4.18605 28.9559 3.76376 29.2466 3.01085 29.2466H2.79148C2.27675 29.2466 1.94613 29.5373 1.94613 30.1399C1.94613 30.7009 2.25794 31.0332 2.7907 31.0332H3.02966C3.85621 31.0332 4.29652 31.3443 4.29652 31.9886C4.29652 32.5496 3.83741 32.9643 3.23101 32.9643C2.57055 32.9643 2.11144 32.5496 1.7628 32.1543C1.54186 31.9257 1.35853 31.7599 1.02791 31.7599C0.422287 31.7599 0 32.1543 0 32.7986C0 34.2316 1.72597 35 3.23179 35ZM10.3746 32.1339H35.5129C36.3575 32.1339 36.9999 31.4072 36.9999 30.4722C36.9999 29.5169 36.3575 28.7893 35.5129 28.7893H10.3746C9.54808 28.7893 8.90564 29.516 8.90564 30.4722C8.90564 31.4063 9.54808 32.1339 10.3746 32.1339Z" fill="#E6E6E6"/>
</svg>
