<svg width="30" height="30" viewBox="0 0 30 30" fill="none" xmlns="http://www.w3.org/2000/svg">
<path d="M13.3502 1.5C16.9502 1.5 19.6502 1.95 21.4502 3C23.4002 4.05 24.3002 5.85 24.3002 8.4C24.3002 9.9 23.8502 11.25 23.2502 12.3C22.9101 12.8129 22.4683 13.2506 21.9523 13.586C21.4363 13.9214 20.857 14.1474 20.2502 14.25C21.1077 14.4503 21.9211 14.8062 22.6502 15.3C23.2502 15.75 23.8502 16.5 24.3002 17.25C24.7696 18.3365 24.9752 19.5188 24.9002 20.7C24.9532 21.7837 24.75 22.8646 24.3069 23.855C23.8638 24.8454 23.1934 25.7173 22.3502 26.4C20.2149 27.925 17.6189 28.6667 15.0002 28.5H4.9502V1.5H13.3502ZM13.9502 12.15C15.6002 12.15 16.8002 12 17.4002 11.4C18.1502 10.95 18.4502 10.05 18.4502 9.15C18.4502 8.1 18.0002 7.35 17.2502 6.9C16.5002 6.45 15.3002 6.15 13.6502 6.15H10.6502V12.15H13.9502ZM10.6502 16.65V24H14.4002C16.0502 24 17.4002 23.55 18.0002 22.95C18.7502 22.2 19.0502 21.45 19.0502 20.25C19.0681 19.7966 18.9829 19.345 18.801 18.9293C18.6191 18.5136 18.3453 18.1446 18.0002 17.85C17.2502 17.25 16.0502 16.95 14.2502 16.95H10.5002L10.6502 16.65Z" fill="#E6E6E6"/>
</svg>
