<svg width="53" height="22" viewBox="0 0 53 22" fill="none" xmlns="http://www.w3.org/2000/svg">
<path d="M11.0859 14.459C11.0859 14.5535 11.159 14.6309 11.2471 14.6309H15.2217C15.3098 14.6309 15.3828 14.5535 15.3828 14.459V13.4277C15.3828 13.3332 15.3098 13.2559 15.2217 13.2559H11.2471C11.159 13.2559 11.0859 13.3332 11.0859 13.4277V14.459ZM6.89863 14.59L11.0236 11.1311C11.1053 11.0623 11.1053 10.9355 11.0236 10.8668L6.89863 7.40996C6.87373 7.38878 6.84328 7.3752 6.81088 7.37082C6.77849 7.36644 6.74552 7.37144 6.71589 7.38524C6.68625 7.39904 6.6612 7.42105 6.64371 7.44866C6.62621 7.47627 6.61701 7.50833 6.61719 7.54102V8.88809C6.61719 8.93965 6.63867 8.98691 6.67949 9.01914L9.03848 11L6.67949 12.9809C6.66029 12.9969 6.64478 13.017 6.63403 13.0396C6.62328 13.0622 6.61753 13.0869 6.61719 13.1119V14.459C6.61719 14.6051 6.78691 14.6846 6.89863 14.59ZM18.9062 2.40625H3.09375C2.71348 2.40625 2.40625 2.71348 2.40625 3.09375V18.9062C2.40625 19.2865 2.71348 19.5938 3.09375 19.5938H18.9062C19.2865 19.5938 19.5938 19.2865 19.5938 18.9062V3.09375C19.5938 2.71348 19.2865 2.40625 18.9062 2.40625ZM18.0469 18.0469H3.95312V3.95312H18.0469V18.0469Z" fill="#E6E6E6"/>
<path d="M29.6133 15.2266C29.8711 15.2266 30.1094 15.1738 30.3281 15.0684C30.5469 14.9629 30.7266 14.8184 30.8672 14.6348C31.0078 14.4473 31.0879 14.2344 31.1074 13.9961H32.1387C32.1191 14.3711 31.9922 14.7207 31.7578 15.0449C31.5273 15.3652 31.2246 15.625 30.8496 15.8242C30.4746 16.0195 30.0625 16.1172 29.6133 16.1172C29.1367 16.1172 28.7207 16.0332 28.3652 15.8652C28.0137 15.6973 27.7207 15.4668 27.4863 15.1738C27.2559 14.8809 27.082 14.5449 26.9648 14.166C26.8516 13.7832 26.7949 13.3789 26.7949 12.9531V12.707C26.7949 12.2812 26.8516 11.8789 26.9648 11.5C27.082 11.1172 27.2559 10.7793 27.4863 10.4863C27.7207 10.1934 28.0137 9.96289 28.3652 9.79492C28.7207 9.62695 29.1367 9.54297 29.6133 9.54297C30.1094 9.54297 30.543 9.64453 30.9141 9.84766C31.2852 10.0469 31.5762 10.3203 31.7871 10.668C32.002 11.0117 32.1191 11.4023 32.1387 11.8398H31.1074C31.0879 11.5781 31.0137 11.3418 30.8848 11.1309C30.7598 10.9199 30.5879 10.752 30.3691 10.627C30.1543 10.498 29.9023 10.4336 29.6133 10.4336C29.2812 10.4336 29.002 10.5 28.7754 10.6328C28.5527 10.7617 28.375 10.9375 28.2422 11.1602C28.1133 11.3789 28.0195 11.623 27.9609 11.8926C27.9062 12.1582 27.8789 12.4297 27.8789 12.707V12.9531C27.8789 13.2305 27.9062 13.5039 27.9609 13.7734C28.0156 14.043 28.1074 14.2871 28.2363 14.5059C28.3691 14.7246 28.5469 14.9004 28.7695 15.0332C28.9961 15.1621 29.2773 15.2266 29.6133 15.2266ZM34.4355 10.9199V16H33.3457V9.66016H34.377L34.4355 10.9199ZM34.2129 12.5898L33.709 12.5723C33.7129 12.1387 33.7695 11.7383 33.8789 11.3711C33.9883 11 34.1504 10.6777 34.3652 10.4043C34.5801 10.1309 34.8477 9.91992 35.168 9.77148C35.4883 9.61914 35.8594 9.54297 36.2812 9.54297C36.5781 9.54297 36.8516 9.58594 37.1016 9.67188C37.3516 9.75391 37.5684 9.88477 37.752 10.0645C37.9355 10.2441 38.0781 10.4746 38.1797 10.7559C38.2812 11.0371 38.332 11.377 38.332 11.7754V16H37.248V11.8281C37.248 11.4961 37.1914 11.2305 37.0781 11.0312C36.9688 10.832 36.8125 10.6875 36.6094 10.5977C36.4062 10.5039 36.168 10.457 35.8945 10.457C35.5742 10.457 35.3066 10.5137 35.0918 10.627C34.877 10.7402 34.7051 10.8965 34.5762 11.0957C34.4473 11.2949 34.3535 11.5234 34.2949 11.7812C34.2402 12.0352 34.2129 12.3047 34.2129 12.5898ZM38.3203 11.9922L37.5938 12.2148C37.5977 11.8672 37.6543 11.5332 37.7637 11.2129C37.877 10.8926 38.0391 10.6074 38.25 10.3574C38.4648 10.1074 38.7285 9.91016 39.041 9.76562C39.3535 9.61719 39.7109 9.54297 40.1133 9.54297C40.4531 9.54297 40.7539 9.58789 41.0156 9.67773C41.2812 9.76758 41.5039 9.90625 41.6836 10.0938C41.8672 10.2773 42.0059 10.5137 42.0996 10.8027C42.1934 11.0918 42.2402 11.4355 42.2402 11.834V16H41.1504V11.8223C41.1504 11.4668 41.0938 11.1914 40.9805 10.9961C40.8711 10.7969 40.7148 10.6582 40.5117 10.5801C40.3125 10.498 40.0742 10.457 39.7969 10.457C39.5586 10.457 39.3477 10.498 39.1641 10.5801C38.9805 10.6621 38.8262 10.7754 38.7012 10.9199C38.5762 11.0605 38.4805 11.2227 38.4141 11.4062C38.3516 11.5898 38.3203 11.7852 38.3203 11.9922ZM47.877 14.7695V7H48.9668V16H47.9707L47.877 14.7695ZM43.6113 12.9004V12.7773C43.6113 12.293 43.6699 11.8535 43.7871 11.459C43.9082 11.0605 44.0781 10.7188 44.2969 10.4336C44.5195 10.1484 44.7832 9.92969 45.0879 9.77734C45.3965 9.62109 45.7402 9.54297 46.1191 9.54297C46.5176 9.54297 46.8652 9.61328 47.1621 9.75391C47.4629 9.89062 47.7168 10.0918 47.9238 10.3574C48.1348 10.6191 48.3008 10.9355 48.4219 11.3066C48.543 11.6777 48.627 12.0977 48.6738 12.5664V13.1055C48.6309 13.5703 48.5469 13.9883 48.4219 14.3594C48.3008 14.7305 48.1348 15.0469 47.9238 15.3086C47.7168 15.5703 47.4629 15.7715 47.1621 15.9121C46.8613 16.0488 46.5098 16.1172 46.1074 16.1172C45.7363 16.1172 45.3965 16.0371 45.0879 15.877C44.7832 15.7168 44.5195 15.4922 44.2969 15.2031C44.0781 14.9141 43.9082 14.5742 43.7871 14.1836C43.6699 13.7891 43.6113 13.3613 43.6113 12.9004ZM44.7012 12.7773V12.9004C44.7012 13.2168 44.7324 13.5137 44.7949 13.791C44.8613 14.0684 44.9629 14.3125 45.0996 14.5234C45.2363 14.7344 45.4102 14.9004 45.6211 15.0215C45.832 15.1387 46.084 15.1973 46.377 15.1973C46.7363 15.1973 47.0312 15.1211 47.2617 14.9688C47.4961 14.8164 47.6836 14.6152 47.8242 14.3652C47.9648 14.1152 48.0742 13.8438 48.1523 13.5508V12.1387C48.1055 11.9238 48.0371 11.7168 47.9473 11.5176C47.8613 11.3145 47.748 11.1348 47.6074 10.9785C47.4707 10.8184 47.3008 10.6914 47.0977 10.5977C46.8984 10.5039 46.6621 10.457 46.3887 10.457C46.0918 10.457 45.8359 10.5195 45.6211 10.6445C45.4102 10.7656 45.2363 10.9336 45.0996 11.1484C44.9629 11.3594 44.8613 11.6055 44.7949 11.8867C44.7324 12.1641 44.7012 12.4609 44.7012 12.7773Z" fill="white"/>
</svg>
