<svg width="22" height="23" viewBox="0 0 22 23" fill="none" xmlns="http://www.w3.org/2000/svg">
<rect x="7" y="13" width="8" height="7" fill="#0D99FF"/>
<path d="M16.06 10H5.94C5.69662 10 5.5 10.1966 5.5 10.44V20.56C5.5 20.8034 5.69662 21 5.94 21H16.06C16.3034 21 16.5 20.8034 16.5 20.56V10.44C16.5 10.1966 16.3034 10 16.06 10ZM11.0151 15.5839L8.37513 17.7976C8.30363 17.8581 8.195 17.8073 8.195 17.7138V16.8516C8.195 16.82 8.21012 16.7884 8.23487 16.7678L9.74463 15.5L8.23487 14.2322C8.22224 14.2223 8.21207 14.2095 8.20515 14.195C8.19824 14.1804 8.19476 14.1645 8.195 14.1484V13.2863C8.195 13.1928 8.30363 13.1419 8.37513 13.2024L11.0151 15.4147C11.0687 15.4587 11.0687 15.5399 11.0151 15.5839Z" fill="#0D99FF"/>
<path d="M13.5292 14.2922C13.4388 14.2789 13.3612 14.2398 13.2708 14.2139C13.284 14.1619 13.284 14.1098 13.3096 14.0315C13.4904 13.0946 13.3616 12.353 12.9484 12.0923C12.5356 11.8583 11.8644 12.1052 11.1936 12.6911C11.1416 12.7432 11.0516 12.7952 11 12.8731C10.9612 12.8344 10.9096 12.7952 10.8708 12.7432C10.1612 12.1056 9.4644 11.845 9.026 12.0923C8.6128 12.3263 8.484 13.0426 8.6644 13.9145C8.6776 14.0057 8.7032 14.0969 8.7164 14.1748C8.626 14.1881 8.5224 14.2272 8.4324 14.266C7.5936 14.5654 7 15.0472 7 15.5027C7 15.997 7.632 16.4917 8.4968 16.7778C8.574 16.7911 8.6388 16.8302 8.716 16.8302C8.7032 16.9214 8.6644 17.0122 8.6644 17.1167C8.4964 17.9758 8.626 18.6654 9.0388 18.8998C9.4516 19.1601 10.174 18.8998 10.8452 18.2752C10.8968 18.2227 10.9484 18.184 11.0132 18.1319C11.0808 18.199 11.1541 18.2599 11.2324 18.3139C11.8776 18.8998 12.5484 19.1343 12.9744 18.8998C13.3872 18.6396 13.5292 17.9104 13.3484 16.9993C13.3356 16.9473 13.3356 16.8565 13.2964 16.7782C13.3484 16.7653 13.3872 16.7653 13.4388 16.7257C14.342 16.453 15 15.9587 15 15.4636C14.9872 15.0601 14.368 14.5916 13.5292 14.2922ZM11.4132 12.9647C11.9932 12.4567 12.5356 12.2747 12.7932 12.4046C13.0516 12.5479 13.1548 13.1725 12.9872 13.9928C12.9744 14.0449 12.9744 14.0836 12.9484 14.1619C12.6 14.0836 12.2644 14.0186 11.9032 13.9924C11.7096 13.7063 11.4904 13.4073 11.258 13.1725C11.2968 13.0943 11.3492 13.0237 11.4128 12.9643M9.6188 16.3351C9.6964 16.4784 9.7868 16.6087 9.8772 16.7387C9.63375 16.725 9.39192 16.6901 9.1544 16.6345C9.21399 16.3954 9.30055 16.1639 9.4124 15.9446C9.4644 16.0616 9.5544 16.2181 9.6188 16.3351ZM9.1548 14.4609C9.38934 14.4077 9.62593 14.3642 9.864 14.3305C9.7736 14.4609 9.696 14.5912 9.632 14.734C9.5672 14.8773 9.49 14.9947 9.4124 15.1509C9.2964 14.9035 9.2324 14.682 9.1548 14.4609ZM9.5668 15.5411C9.6572 15.3199 9.7864 15.1246 9.9152 14.9035C10.0444 14.682 10.1732 14.4867 10.2896 14.2785C10.5216 14.2656 10.754 14.2656 10.9992 14.2656C11.2312 14.2656 11.4896 14.2785 11.7088 14.2785C11.8508 14.4738 11.9668 14.682 12.0832 14.8773C12.212 15.0726 12.3152 15.2941 12.4312 15.5148C12.3412 15.7368 12.212 15.9316 12.0832 16.1532C11.954 16.3743 11.8248 16.5696 11.7088 16.7778C11.4768 16.7907 11.2444 16.7907 10.9864 16.7907C10.7284 16.7907 10.496 16.7778 10.2768 16.7778C10.1348 16.5825 10.0184 16.3743 9.9024 16.1532C9.7864 15.9316 9.6832 15.7626 9.5668 15.5411ZM12.38 16.3351C12.4572 16.1919 12.5216 16.062 12.5992 15.9187C12.6896 16.1399 12.78 16.3743 12.8572 16.6087C12.6252 16.6608 12.3668 16.6995 12.1092 16.7387C12.212 16.6087 12.3024 16.4655 12.38 16.3351ZM12.612 15.1376C12.5348 14.9947 12.47 14.8644 12.3928 14.7211C12.3156 14.5779 12.2248 14.4609 12.1608 14.3439C12.3989 14.3774 12.6355 14.4207 12.87 14.4738C12.7928 14.6953 12.7024 14.9164 12.612 15.1376ZM11 13.3815C11.168 13.5635 11.3096 13.7459 11.4516 13.9412C11.1421 13.9282 10.8323 13.9282 10.5228 13.9412C10.6904 13.733 10.858 13.5506 11 13.3815ZM9.1936 12.4171C9.4516 12.2743 10.0452 12.4696 10.6388 13.0422C10.6776 13.0813 10.716 13.12 10.7676 13.1463C10.5356 13.4065 10.316 13.693 10.0968 13.9662C9.74546 14.0024 9.39649 14.059 9.0516 14.1357C9.0388 14.0574 9.0128 13.9662 9 13.9012C8.858 13.1333 8.9484 12.5604 9.1936 12.4171ZM8.832 16.5571C8.78 16.5438 8.7028 16.5179 8.6384 16.5046C8.27861 16.4063 7.94117 16.2384 7.6448 16.0103C7.464 15.88 7.3736 15.7238 7.3352 15.5415C7.3352 15.255 7.8384 14.891 8.548 14.6303C8.6384 14.5916 8.7288 14.5783 8.8188 14.5396C8.922 14.8906 9.0512 15.2162 9.1932 15.5415C9.064 15.8671 8.922 16.1923 8.832 16.5571ZM10.6256 18.0799C10.3648 18.316 10.0629 18.5014 9.7352 18.6266C9.65182 18.6704 9.55963 18.6942 9.46568 18.6965C9.37174 18.6987 9.27853 18.6792 9.1932 18.6396C8.9352 18.4963 8.8448 17.9496 8.9736 17.195C8.9868 17.1034 9.0124 17.0126 9.0256 16.9344C9.3736 17.0126 9.7352 17.0647 10.0704 17.0776C10.264 17.3641 10.5092 17.6631 10.7416 17.9237C10.7288 18.0016 10.6768 18.0408 10.6256 18.0799ZM11.0124 17.7155C10.8444 17.5331 10.7028 17.3508 10.548 17.1555C10.69 17.1555 10.832 17.1688 10.9996 17.1688C11.1672 17.1688 11.322 17.1688 11.464 17.1555C11.3224 17.3249 11.18 17.5073 11.0124 17.7155ZM13.0512 18.1703C13.0384 18.3527 12.948 18.548 12.7932 18.665C12.5352 18.8082 12.0188 18.6262 11.4512 18.1186C11.3996 18.0662 11.3224 18.0141 11.2576 17.9362C11.4941 17.6715 11.7098 17.3886 11.9028 17.0901C12.264 17.0772 12.6124 16.9989 12.948 16.9206C12.9608 16.9731 12.9608 17.051 12.9868 17.103C13.0772 17.4678 13.0772 17.8321 13.0512 18.1703ZM13.3352 16.4917C13.2964 16.5046 13.2448 16.5046 13.1932 16.5304C13.09 16.179 12.9352 15.8538 12.7932 15.5281C12.9352 15.2158 13.064 14.8773 13.1672 14.5392C13.2576 14.5521 13.3352 14.5912 13.3996 14.617C14.122 14.8773 14.6252 15.2417 14.6252 15.5281C14.6384 15.8275 14.1092 16.231 13.3352 16.4913M11 16.244C11.4 16.244 11.7096 15.9187 11.7096 15.5281C11.7078 15.3389 11.6325 15.1579 11.4998 15.0241C11.3671 14.8903 11.1876 14.8144 11 14.8127C10.626 14.8127 10.2904 15.138 10.2904 15.5285C10.2904 15.9191 10.6 16.2444 11 16.2444" fill="#1F1E1E"/>
<path d="M15.2936 1L12.5352 5.62757L12.2375 4.38316L11.147 7.76998L13.408 6.65176L13.416 7.77238L18 5.83332L15.4446 5.75833L17.1689 3.14366L14.5176 4.63779L15.2936 1ZM7.96245 2.2253L6.80769 2.77369L7.41661 4.89235L1 7.93884L1.45339 9L7.86993 5.95228L8.96717 7.83545L10.7467 6.99075L9.97647 4.31301L7.96245 2.2253Z" fill="#0D99FF"/>
</svg>
