<svg width="24" height="24" viewBox="0 0 24 24" fill="none" xmlns="http://www.w3.org/2000/svg">
<path d="M2 11.5V5C2 4.46957 2.21071 3.96086 2.58579 3.58579C2.96086 3.21071 3.46957 3 4 3H7.9C8.6 3 9.2 3.3 9.6 3.9L10.4 5.1C10.8 5.7 11.4 6 12.1 6H20C20.5304 6 21.0391 6.21071 21.4142 6.58579C21.7893 6.96086 22 7.46957 22 8V18C22 18.5304 21.7893 19.0391 21.4142 19.4142C21.0391 19.7893 20.5304 20 20 20H10.5" stroke="#0D99FF" stroke-width="2" stroke-linecap="round" stroke-linejoin="round"/>
<path d="M11.378 13.6261C11.5752 13.4289 11.7317 13.1947 11.8384 12.937C11.9452 12.6793 12.0001 12.4031 12.0001 12.1241C12.0001 11.8452 11.9452 11.569 11.8384 11.3113C11.7317 11.0536 11.5752 10.8194 11.378 10.6221C11.1807 10.4249 10.9466 10.2684 10.6889 10.1617C10.4311 10.0549 10.1549 10 9.87598 10C9.59703 10 9.32081 10.0549 9.0631 10.1617C8.80539 10.2684 8.57122 10.4249 8.37398 10.6221L3.36398 15.6341C3.12622 15.8718 2.9522 16.1655 2.85798 16.4881L2.02098 19.3581C1.99588 19.4442 1.99437 19.5354 2.01662 19.6222C2.03887 19.7091 2.08404 19.7883 2.14742 19.8517C2.2108 19.9151 2.29006 19.9603 2.37689 19.9825C2.46372 20.0048 2.55493 20.0032 2.64098 19.9781L5.51098 19.1411C5.83364 19.0469 6.12735 18.8729 6.36498 18.6351L11.378 13.6261Z" stroke="#0D99FF" stroke-width="2" stroke-linecap="round" stroke-linejoin="round"/>
</svg>
