<svg width="20" height="20" viewBox="0 0 20 20" fill="none" xmlns="http://www.w3.org/2000/svg">
<path d="M3.33334 14H2.66668V14.6667H3.33334V14ZM6.00001 14V14.6667H6.66668V14H6.00001ZM18 4.66667H18.6667V4.39067L18.472 4.19467L18 4.66667ZM14 0.666667L14.472 0.194667L14.276 0H14V0.666667ZM2.66668 8V14H4.00001V8H2.66668ZM3.33334 14.6667H6.00001V13.3333H3.33334V14.6667ZM6.66668 14V11.3333H5.33334V14H6.66668ZM4.00001 9.33333H6.66668V8H4.00001V9.33333ZM2.66668 6.66667V2H1.33334V6.66667H2.66668ZM17.3333 4.66667V6.66667H18.6667V4.66667H17.3333ZM3.33334 1.33333H14V0H3.33334V1.33333ZM13.528 1.13867L17.528 5.13867L18.472 4.19467L14.472 0.194667L13.528 1.13867ZM2.66668 2C2.66668 1.82319 2.73691 1.65362 2.86194 1.5286C2.98696 1.40357 3.15653 1.33333 3.33334 1.33333V0C2.80291 0 2.2942 0.210714 1.91913 0.585786C1.54406 0.960859 1.33334 1.46957 1.33334 2H2.66668ZM1.33334 16V18H2.66668V16H1.33334ZM3.33334 20H16.6667V18.6667H3.33334V20ZM18.6667 18V16H17.3333V18H18.6667ZM16.6667 20C17.1971 20 17.7058 19.7893 18.0809 19.4142C18.456 19.0391 18.6667 18.5304 18.6667 18H17.3333C17.3333 18.1768 17.2631 18.3464 17.1381 18.4714C17.0131 18.5964 16.8435 18.6667 16.6667 18.6667V20ZM1.33334 18C1.33334 18.5304 1.54406 19.0391 1.91913 19.4142C2.2942 19.7893 2.80291 20 3.33334 20V18.6667C3.15653 18.6667 2.98696 18.5964 2.86194 18.4714C2.73691 18.3464 2.66668 18.1768 2.66668 18H1.33334ZM8.00001 9.33333H12V8H8.00001V9.33333ZM8.00001 14.6667H12V13.3333H8.00001V14.6667ZM9.33334 8.66667V14H10.6667V8.66667H9.33334ZM14 9.33333H17.3333V8H14V9.33333ZM13.3333 8V14.6667H14.6667V8H13.3333ZM14 12H16V10.6667H14V12Z" fill="#9747FF"/>
</svg>
