<svg width="24" height="24" viewBox="0 0 24 24" fill="none" xmlns="http://www.w3.org/2000/svg">
<path d="M2.60001 10.5903L8.38001 4.80031L10.07 6.50031C9.83001 7.35031 10.22 8.28031 11 8.73031V14.2703C10.4 14.6103 10 15.2603 10 16.0003C10 16.5307 10.2107 17.0395 10.5858 17.4145C10.9609 17.7896 11.4696 18.0003 12 18.0003C12.5304 18.0003 13.0391 17.7896 13.4142 17.4145C13.7893 17.0395 14 16.5307 14 16.0003C14 15.2603 13.6 14.6103 13 14.2703V9.41031L15.07 11.5003C15 11.6503 15 11.8203 15 12.0003C15 12.5307 15.2107 13.0395 15.5858 13.4145C15.9609 13.7896 16.4696 14.0003 17 14.0003C17.5304 14.0003 18.0391 13.7896 18.4142 13.4145C18.7893 13.0395 19 12.5307 19 12.0003C19 11.4699 18.7893 10.9612 18.4142 10.5861C18.0391 10.211 17.5304 10.0003 17 10.0003C16.82 10.0003 16.65 10.0003 16.5 10.0703L13.93 7.50031C14.0542 7.03715 14.006 6.54466 13.7945 6.11431C13.583 5.68395 13.2225 5.34497 12.78 5.16031C12.35 5.00031 11.9 4.96031 11.5 5.07031L9.80001 3.38031L10.59 2.60031C11.37 1.81031 12.63 1.81031 13.41 2.60031L21.4 10.5903C22.19 11.3703 22.19 12.6303 21.4 13.4103L13.41 21.4003C12.63 22.1903 11.37 22.1903 10.59 21.4003L2.60001 13.4103C1.81001 12.6303 1.81001 11.3703 2.60001 10.5903Z" fill="#B3B3B3"/>
</svg>
