<svg width="59" height="22" viewBox="0 0 59 22" fill="none" xmlns="http://www.w3.org/2000/svg">
<path d="M11.0859 14.459C11.0859 14.5535 11.159 14.6309 11.2471 14.6309H15.2217C15.3098 14.6309 15.3828 14.5535 15.3828 14.459V13.4277C15.3828 13.3332 15.3098 13.2559 15.2217 13.2559H11.2471C11.159 13.2559 11.0859 13.3332 11.0859 13.4277V14.459ZM6.89863 14.59L11.0236 11.1311C11.1053 11.0623 11.1053 10.9355 11.0236 10.8668L6.89863 7.40996C6.87373 7.38878 6.84328 7.3752 6.81088 7.37082C6.77849 7.36644 6.74552 7.37144 6.71589 7.38524C6.68625 7.39904 6.6612 7.42105 6.64371 7.44866C6.62621 7.47627 6.61701 7.50833 6.61719 7.54102V8.88809C6.61719 8.93965 6.63867 8.98691 6.67949 9.01914L9.03848 11L6.67949 12.9809C6.66029 12.9969 6.64478 13.017 6.63403 13.0396C6.62328 13.0622 6.61753 13.0869 6.61719 13.1119V14.459C6.61719 14.6051 6.78691 14.6846 6.89863 14.59ZM18.9062 2.40625H3.09375C2.71348 2.40625 2.40625 2.71348 2.40625 3.09375V18.9062C2.40625 19.2865 2.71348 19.5938 3.09375 19.5938H18.9062C19.2865 19.5938 19.5938 19.2865 19.5938 18.9062V3.09375C19.5938 2.71348 19.2865 2.40625 18.9062 2.40625ZM18.0469 18.0469H3.95312V3.95312H18.0469V18.0469Z" fill="#E6E6E6"/>
<path d="M26.8203 7H27.9102V14.7695L27.8164 16H26.8203V7ZM32.1934 12.7773V12.9004C32.1934 13.3613 32.1387 13.7891 32.0293 14.1836C31.9199 14.5742 31.7598 14.9141 31.5488 15.2031C31.3379 15.4922 31.0801 15.7168 30.7754 15.877C30.4707 16.0371 30.1211 16.1172 29.7266 16.1172C29.3242 16.1172 28.9707 16.0488 28.666 15.9121C28.3652 15.7715 28.1113 15.5703 27.9043 15.3086C27.6973 15.0469 27.5312 14.7305 27.4062 14.3594C27.2852 13.9883 27.2012 13.5703 27.1543 13.1055V12.5664C27.2012 12.0977 27.2852 11.6777 27.4062 11.3066C27.5312 10.9355 27.6973 10.6191 27.9043 10.3574C28.1113 10.0918 28.3652 9.89062 28.666 9.75391C28.9668 9.61328 29.3164 9.54297 29.7148 9.54297C30.1133 9.54297 30.4668 9.62109 30.7754 9.77734C31.084 9.92969 31.3418 10.1484 31.5488 10.4336C31.7598 10.7188 31.9199 11.0605 32.0293 11.459C32.1387 11.8535 32.1934 12.293 32.1934 12.7773ZM31.1035 12.9004V12.7773C31.1035 12.4609 31.0742 12.1641 31.0156 11.8867C30.957 11.6055 30.8633 11.3594 30.7344 11.1484C30.6055 10.9336 30.4355 10.7656 30.2246 10.6445C30.0137 10.5195 29.7539 10.457 29.4453 10.457C29.1719 10.457 28.9336 10.5039 28.7305 10.5977C28.5312 10.6914 28.3613 10.8184 28.2207 10.9785C28.0801 11.1348 27.9648 11.3145 27.875 11.5176C27.7891 11.7168 27.7246 11.9238 27.6816 12.1387V13.5508C27.7441 13.8242 27.8457 14.0879 27.9863 14.3418C28.1309 14.5918 28.3223 14.7969 28.5605 14.957C28.8027 15.1172 29.1016 15.1973 29.457 15.1973C29.75 15.1973 30 15.1387 30.207 15.0215C30.418 14.9004 30.5879 14.7344 30.7168 14.5234C30.8496 14.3125 30.9473 14.0684 31.0098 13.791C31.0723 13.5137 31.1035 13.2168 31.1035 12.9004ZM37.3027 14.916V11.6523C37.3027 11.4023 37.252 11.1855 37.1504 11.002C37.0527 10.8145 36.9043 10.6699 36.7051 10.5684C36.5059 10.4668 36.2598 10.416 35.9668 10.416C35.6934 10.416 35.4531 10.4629 35.2461 10.5566C35.043 10.6504 34.8828 10.7734 34.7656 10.9258C34.6523 11.0781 34.5957 11.2422 34.5957 11.418H33.5117C33.5117 11.1914 33.5703 10.9668 33.6875 10.7441C33.8047 10.5215 33.9727 10.3203 34.1914 10.1406C34.4141 9.95703 34.6797 9.8125 34.9883 9.70703C35.3008 9.59766 35.6484 9.54297 36.0312 9.54297C36.4922 9.54297 36.8984 9.62109 37.25 9.77734C37.6055 9.93359 37.8828 10.1699 38.082 10.4863C38.2852 10.7988 38.3867 11.1914 38.3867 11.6641V14.6172C38.3867 14.8281 38.4043 15.0527 38.4395 15.291C38.4785 15.5293 38.5352 15.7344 38.6094 15.9062V16H37.4785C37.4238 15.875 37.3809 15.709 37.3496 15.502C37.3184 15.291 37.3027 15.0957 37.3027 14.916ZM37.4902 12.1562L37.502 12.918H36.4062C36.0977 12.918 35.8223 12.9434 35.5801 12.9941C35.3379 13.041 35.1348 13.1133 34.9707 13.2109C34.8066 13.3086 34.6816 13.4316 34.5957 13.5801C34.5098 13.7246 34.4668 13.8945 34.4668 14.0898C34.4668 14.2891 34.5117 14.4707 34.6016 14.6348C34.6914 14.7988 34.8262 14.9297 35.0059 15.0273C35.1895 15.1211 35.4141 15.168 35.6797 15.168C36.0117 15.168 36.3047 15.0977 36.5586 14.957C36.8125 14.8164 37.0137 14.6445 37.1621 14.4414C37.3145 14.2383 37.3965 14.041 37.4082 13.8496L37.8711 14.3711C37.8438 14.5352 37.7695 14.7168 37.6484 14.916C37.5273 15.1152 37.3652 15.3066 37.1621 15.4902C36.9629 15.6699 36.7246 15.8203 36.4473 15.9414C36.1738 16.0586 35.8652 16.1172 35.5215 16.1172C35.0918 16.1172 34.7148 16.0332 34.3906 15.8652C34.0703 15.6973 33.8203 15.4727 33.6406 15.1914C33.4648 14.9062 33.377 14.5879 33.377 14.2363C33.377 13.8965 33.4434 13.5977 33.5762 13.3398C33.709 13.0781 33.9004 12.8613 34.1504 12.6895C34.4004 12.5137 34.7012 12.3809 35.0527 12.291C35.4043 12.2012 35.7969 12.1562 36.2305 12.1562H37.4902ZM43.7832 14.3184C43.7832 14.1621 43.748 14.0176 43.6777 13.8848C43.6113 13.748 43.4727 13.625 43.2617 13.5156C43.0547 13.4023 42.7422 13.3047 42.3242 13.2227C41.9727 13.1484 41.6543 13.0605 41.3691 12.959C41.0879 12.8574 40.8477 12.7344 40.6484 12.5898C40.4531 12.4453 40.3027 12.2754 40.1973 12.0801C40.0918 11.8848 40.0391 11.6562 40.0391 11.3945C40.0391 11.1445 40.0938 10.9082 40.2031 10.6855C40.3164 10.4629 40.4746 10.2656 40.6777 10.0938C40.8848 9.92188 41.1328 9.78711 41.4219 9.68945C41.7109 9.5918 42.0332 9.54297 42.3887 9.54297C42.8965 9.54297 43.3301 9.63281 43.6895 9.8125C44.0488 9.99219 44.3242 10.2324 44.5156 10.5332C44.707 10.8301 44.8027 11.1602 44.8027 11.5234H43.7188C43.7188 11.3477 43.666 11.1777 43.5605 11.0137C43.459 10.8457 43.3086 10.707 43.1094 10.5977C42.9141 10.4883 42.6738 10.4336 42.3887 10.4336C42.0879 10.4336 41.8438 10.4805 41.6562 10.5742C41.4727 10.6641 41.3379 10.7793 41.252 10.9199C41.1699 11.0605 41.1289 11.209 41.1289 11.3652C41.1289 11.4824 41.1484 11.5879 41.1875 11.6816C41.2305 11.7715 41.3047 11.8555 41.4102 11.9336C41.5156 12.0078 41.6641 12.0781 41.8555 12.1445C42.0469 12.2109 42.291 12.2773 42.5879 12.3438C43.1074 12.4609 43.5352 12.6016 43.8711 12.7656C44.207 12.9297 44.457 13.1309 44.6211 13.3691C44.7852 13.6074 44.8672 13.8965 44.8672 14.2363C44.8672 14.5137 44.8086 14.7676 44.6914 14.998C44.5781 15.2285 44.4121 15.4277 44.1934 15.5957C43.9785 15.7598 43.7207 15.8887 43.4199 15.9824C43.123 16.0723 42.7891 16.1172 42.418 16.1172C41.8594 16.1172 41.3867 16.0176 41 15.8184C40.6133 15.6191 40.3203 15.3613 40.1211 15.0449C39.9219 14.7285 39.8223 14.3945 39.8223 14.043H40.9121C40.9277 14.3398 41.0137 14.5762 41.1699 14.752C41.3262 14.9238 41.5176 15.0469 41.7441 15.1211C41.9707 15.1914 42.1953 15.2266 42.418 15.2266C42.7148 15.2266 42.9629 15.1875 43.1621 15.1094C43.3652 15.0312 43.5195 14.9238 43.625 14.7871C43.7305 14.6504 43.7832 14.4941 43.7832 14.3184ZM47.375 7V16H46.291V7H47.375ZM47.1172 12.5898L46.666 12.5723C46.6699 12.1387 46.7344 11.7383 46.8594 11.3711C46.9844 11 47.1602 10.6777 47.3867 10.4043C47.6133 10.1309 47.8828 9.91992 48.1953 9.77148C48.5117 9.61914 48.8613 9.54297 49.2441 9.54297C49.5566 9.54297 49.8379 9.58594 50.0879 9.67188C50.3379 9.75391 50.5508 9.88672 50.7266 10.0703C50.9062 10.2539 51.043 10.4922 51.1367 10.7852C51.2305 11.0742 51.2773 11.4277 51.2773 11.8457V16H50.1875V11.834C50.1875 11.502 50.1387 11.2363 50.041 11.0371C49.9434 10.834 49.8008 10.6875 49.6133 10.5977C49.4258 10.5039 49.1953 10.457 48.9219 10.457C48.6523 10.457 48.4062 10.5137 48.1836 10.627C47.9648 10.7402 47.7754 10.8965 47.6152 11.0957C47.459 11.2949 47.3359 11.5234 47.2461 11.7812C47.1602 12.0352 47.1172 12.3047 47.1172 12.5898Z" fill="white"/>
</svg>
