<svg width="22" height="19" viewBox="0 0 22 19" fill="none" xmlns="http://www.w3.org/2000/svg">
<path d="M7.99919 13.417C8.003 13.3595 7.99337 13.3019 7.97097 13.2483C7.94857 13.1947 7.91396 13.1464 7.86959 13.1069C7.82522 13.0674 7.77219 13.0376 7.71425 13.0196C7.65632 13.0016 7.5949 12.9959 7.53437 13.0029L0.799134 13.596C0.472036 13.6339 0.319618 13.9992 0.531426 14.2377L1.60558 15.4894L0.576861 16.0505C-0.0147059 16.3733 -0.160064 16.8853 0.181486 17.4443C0.523036 18.0033 1.0651 18.1405 1.65666 17.8178L2.68165 17.2585L3.28335 18.7416C3.39606 19.0342 3.80714 19.0922 4.00541 18.8437L7.91662 13.6284C7.96545 13.5671 7.99415 13.4936 7.99919 13.417Z" fill="#0D99FF"/>
<path d="M1 9.5V3C1 2.46957 1.21071 1.96086 1.58579 1.58579C1.96086 1.21071 2.46957 1 3 1H6.9C7.6 1 8.2 1.3 8.6 1.9L9.4 3.1C9.8 3.7 10.4 4 11.1 4H19C19.5304 4 20.0391 4.21071 20.4142 4.58579C20.7893 4.96086 21 5.46957 21 6V16C21 16.5304 20.7893 17.0391 20.4142 17.4142C20.0391 17.7893 19.5304 18 19 18H9.5" stroke="#0D99FF" stroke-width="2" stroke-linecap="round" stroke-linejoin="round"/>
</svg>
