<svg width="24" height="24" viewBox="0 0 24 24" fill="none" xmlns="http://www.w3.org/2000/svg">
<path d="M4 6V3.6C4 3.44087 4.06321 3.28826 4.17574 3.17574C4.28826 3.06321 4.44087 3 4.6 3H19.4C19.5591 3 19.7117 3.06321 19.8243 3.17574C19.9368 3.28826 20 3.44087 20 3.6V6M4 18V20.4C4 20.5591 4.06321 20.7117 4.17574 20.8243C4.28826 20.9368 4.44087 21 4.6 21H19.4C19.5591 21 19.7117 20.9368 19.8243 20.8243C19.9368 20.7117 20 20.5591 20 20.4V18" stroke="#9FF9D5" stroke-width="1.5" stroke-linecap="round"/>
<path d="M10 15V12M10 12V9H13V12H10ZM19 9H16V15H19V12.6M7 9V13.2C7 15 5 15 5 15" stroke="#9FF9D5" stroke-width="1.5" stroke-linecap="round" stroke-linejoin="round"/>
</svg>
