<svg width="24" height="24" viewBox="0 0 24 24" fill="none" xmlns="http://www.w3.org/2000/svg">
<path d="M14.0805 14.7749C14.3134 15.2464 14.6745 15.6427 15.1223 15.9184C15.5701 16.194 16.0866 16.3379 16.6125 16.3334C17.676 16.3334 18.3555 15.8017 18.3555 15.0674C18.3555 14.1877 17.6572 13.8757 16.4872 13.3634L15.8452 13.0882C13.9935 12.2992 12.7627 11.3107 12.7627 9.22117C12.7627 7.29592 14.2297 5.83117 16.5217 5.83117C17.2656 5.77739 18.0088 5.94398 18.6585 6.31013C19.3083 6.67628 19.8357 7.22576 20.175 7.88992L18.1762 9.17317C18.0451 8.84418 17.8171 8.5628 17.5224 8.36631C17.2278 8.16982 16.8804 8.06751 16.5262 8.07292C16.3719 8.0575 16.216 8.07439 16.0685 8.12252C15.921 8.17064 15.7852 8.24894 15.6696 8.35244C15.5541 8.45594 15.4613 8.58236 15.3973 8.72366C15.3333 8.86496 15.2994 9.01805 15.2977 9.17317C15.2977 9.94342 15.7747 10.2547 16.8727 10.7317L17.5147 11.0062C19.6957 11.9414 20.9265 12.8947 20.9265 15.0382C20.9265 17.3489 19.1115 18.6149 16.6732 18.6149C15.7236 18.6749 14.7768 18.459 13.947 17.9932C13.1172 17.5275 12.4398 16.8318 11.9962 15.9899L14.0805 14.7749ZM5.01449 14.9999C5.41799 15.7154 5.78474 16.3199 6.66449 16.3199C7.50749 16.3199 8.03999 15.9899 8.03999 14.7074V5.98117H10.6065V14.7434C10.6065 17.4007 9.04799 18.6104 6.77399 18.6104C5.97069 18.6541 5.173 18.4535 4.48594 18.035C3.79889 17.6165 3.25468 16.9997 2.92499 16.2659L5.01449 14.9999Z" fill="#F5DE19"/>
</svg>
