<svg width="24" height="24" viewBox="0 0 24 24" fill="none" xmlns="http://www.w3.org/2000/svg">
<path d="M14 19H16C16.5304 19 17.0391 18.7893 17.4142 18.4142C17.7893 18.0391 18 17.5304 18 17V14.562C18.0001 14.116 18.1492 13.6828 18.4237 13.3313C18.6982 12.9798 19.0823 12.7302 19.515 12.622L21.03 12.242C21.282 12.179 21.282 11.821 21.03 11.757L19.515 11.379C19.0823 11.2708 18.6982 11.0212 18.4237 10.6697C18.1492 10.3182 18.0001 9.88499 18 9.439V5H14M10 5H8.00001C7.46957 5 6.96086 5.21071 6.58579 5.58579C6.21072 5.96086 6.00001 6.46957 6.00001 7V9.438C5.99994 9.88399 5.8508 10.3172 5.5763 10.6687C5.3018 11.0202 4.91768 11.2698 4.48501 11.378L2.97001 11.758C2.71801 11.821 2.71801 12.179 2.97001 12.243L4.48501 12.621C4.91768 12.7292 5.3018 12.9788 5.5763 13.3303C5.8508 13.6818 5.99994 14.115 6.00001 14.561V19H10" stroke="#FFCD29" stroke-width="2"/>
</svg>
