<svg width="24" height="24" viewBox="0 0 24 24" fill="none" xmlns="http://www.w3.org/2000/svg">
<path d="M12 9C17.583 9 21 10.9425 21 12C21 13.0575 17.583 15 12 15C6.417 15 3 13.0575 3 12C3 10.9425 6.417 9 12 9ZM12 7.5C6.201 7.5 1.5 9.5145 1.5 12C1.5 14.4855 6.201 16.5 12 16.5C17.799 16.5 22.5 14.4855 22.5 12C22.5 9.5145 17.799 7.5 12 7.5Z" fill="#0288D1"/>
<path d="M12 10.5C11.7033 10.5 11.4133 10.588 11.1666 10.7528C10.92 10.9176 10.7277 11.1519 10.6142 11.426C10.5006 11.7001 10.4709 12.0017 10.5288 12.2926C10.5867 12.5836 10.7296 12.8509 10.9393 13.0607C11.1491 13.2704 11.4164 13.4133 11.7074 13.4712C11.9983 13.5291 12.2999 13.4994 12.574 13.3858C12.8481 13.2723 13.0824 13.08 13.2472 12.8334C13.412 12.5867 13.5 12.2967 13.5 12C13.5 11.6022 13.342 11.2206 13.0607 10.9393C12.7794 10.658 12.3978 10.5 12 10.5Z" fill="#0288D1"/>
<path d="M7.84351 4.12988C9.35626 4.12988 12.2963 6.51263 14.598 10.4996C17.3895 15.3349 17.4158 19.2649 16.5 19.7936C16.3944 19.8484 16.2761 19.8743 16.1573 19.8686C14.6445 19.8686 11.7038 17.4866 9.40201 13.4996C6.61051 8.66438 6.58426 4.73438 7.50001 4.20563C7.60587 4.15073 7.7244 4.1241 7.84351 4.12988ZM7.84276 2.63063C7.46053 2.62372 7.08335 2.71872 6.75001 2.90588C4.59751 4.14863 5.20351 9.22763 8.10301 14.2496C10.566 18.5171 13.893 21.3694 16.158 21.3694C16.5401 21.3757 16.917 21.2802 17.25 21.0926C19.4025 19.8506 18.7965 14.7716 15.897 9.74963C13.434 5.48213 10.107 2.62988 7.84201 2.62988L7.84276 2.63063Z" fill="#0288D1"/>
<path d="M16.1572 4.13019C16.2761 4.12454 16.3944 4.15041 16.5 4.20519C17.4157 4.73469 17.3895 8.66469 14.598 13.4999C12.2955 17.4869 9.35549 19.8697 7.84274 19.8697C7.72388 19.8753 7.60563 19.8495 7.49999 19.7947C6.58424 19.2644 6.61049 15.3344 9.40199 10.4999C11.7045 6.51294 14.6445 4.13019 16.1572 4.13019ZM16.1572 2.63019C13.8922 2.63019 10.566 5.48319 8.10224 9.74994C5.20424 14.7719 4.59749 19.8509 6.74999 21.0929C7.08319 21.2806 7.46038 21.3761 7.84274 21.3697C10.1077 21.3697 13.434 18.5167 15.8977 14.2499C18.7957 9.22794 19.4025 4.14894 17.25 2.90694C16.9168 2.71926 16.5396 2.62373 16.1572 2.63019Z" fill="#0288D1"/>
</svg>
