<svg width="20" height="20" viewBox="0 0 20 20" fill="none" xmlns="http://www.w3.org/2000/svg">
<path d="M18 4.66667H18.6667V4.39067L18.472 4.19467L18 4.66667ZM14 0.666667L14.472 0.194667L14.276 0H14V0.666667ZM3.33334 8.66667L3.80534 8.19467C3.7121 8.10119 3.59321 8.03751 3.46373 8.01168C3.33425 7.98586 3.20002 7.99906 3.07806 8.04962C2.95609 8.10018 2.85189 8.18581 2.77865 8.29566C2.70541 8.40551 2.66644 8.53464 2.66668 8.66667H3.33334ZM4.66668 10L4.19468 10.472L4.66668 10.9427L5.13868 10.472L4.66668 10ZM6.00001 8.66667H6.66668C6.66691 8.53464 6.62794 8.40551 6.5547 8.29566C6.48147 8.18581 6.37726 8.10018 6.25529 8.04962C6.13333 7.99906 5.9991 7.98586 5.86962 8.01168C5.74014 8.03751 5.62125 8.10119 5.52801 8.19467L6.00001 8.66667ZM14 12.6667H13.3333V12.9427L13.528 13.1387L14 12.6667ZM15.3333 14L14.8613 14.472C14.9233 14.5341 14.9968 14.5833 15.0778 14.617C15.1588 14.6506 15.2457 14.6679 15.3333 14.6679C15.421 14.6679 15.5079 14.6506 15.5889 14.617C15.6698 14.5833 15.7434 14.5341 15.8053 14.472L15.3333 14ZM16.6667 12.6667L17.1387 13.1387L17.3333 12.9427V12.6667H16.6667ZM2.66668 6.66667V2H1.33334V6.66667H2.66668ZM17.3333 4.66667V6.66667H18.6667V4.66667H17.3333ZM3.33334 1.33333H14V0H3.33334V1.33333ZM13.528 1.13867L17.528 5.13867L18.472 4.19467L14.472 0.194667L13.528 1.13867ZM2.66668 2C2.66668 1.82319 2.73691 1.65362 2.86194 1.5286C2.98696 1.40357 3.15653 1.33333 3.33334 1.33333V0C2.80291 0 2.2942 0.210714 1.91913 0.585786C1.54406 0.960859 1.33334 1.46957 1.33334 2H2.66668ZM1.33334 16V18H2.66668V16H1.33334ZM3.33334 20H16.6667V18.6667H3.33334V20ZM18.6667 18V16H17.3333V18H18.6667ZM16.6667 20C17.1971 20 17.7058 19.7893 18.0809 19.4142C18.456 19.0391 18.6667 18.5304 18.6667 18H17.3333C17.3333 18.1768 17.2631 18.3464 17.1381 18.4714C17.0131 18.5964 16.8435 18.6667 16.6667 18.6667V20ZM1.33334 18C1.33334 18.5304 1.54406 19.0391 1.91913 19.4142C2.2942 19.7893 2.80291 20 3.33334 20V18.6667C3.15653 18.6667 2.98696 18.5964 2.86194 18.4714C2.73691 18.3464 2.66668 18.1768 2.66668 18H1.33334ZM4.00001 14.6667V8.66667H2.66668V14.6667H4.00001ZM2.86134 9.13867L4.19468 10.472L5.13868 9.528L3.80534 8.19467L2.86134 9.13867ZM5.13868 10.472L6.47201 9.13867L5.52801 8.19467L4.19468 9.528L5.13868 10.472ZM5.33334 8.66667V14.6667H6.66668V8.66667H5.33334ZM10.6667 10V12.6667H12V10H10.6667ZM9.33334 12.6667V10H8.00001V12.6667H9.33334ZM10 13.3333C9.8232 13.3333 9.65363 13.2631 9.52861 13.1381C9.40358 13.013 9.33334 12.8435 9.33334 12.6667H8.00001C8.00001 13.1971 8.21072 13.7058 8.5858 14.0809C8.96087 14.456 9.46958 14.6667 10 14.6667V13.3333ZM10.6667 12.6667C10.6667 12.8435 10.5964 13.013 10.4714 13.1381C10.3464 13.2631 10.1768 13.3333 10 13.3333V14.6667C10.5304 14.6667 11.0392 14.456 11.4142 14.0809C11.7893 13.7058 12 13.1971 12 12.6667H10.6667ZM10 9.33333C10.1768 9.33333 10.3464 9.40357 10.4714 9.5286C10.5964 9.65362 10.6667 9.82319 10.6667 10H12C12 9.46957 11.7893 8.96086 11.4142 8.58579C11.0392 8.21071 10.5304 8 10 8V9.33333ZM10 8C9.46958 8 8.96087 8.21071 8.5858 8.58579C8.21072 8.96086 8.00001 9.46957 8.00001 10H9.33334C9.33334 9.82319 9.40358 9.65362 9.52861 9.5286C9.65363 9.40357 9.8232 9.33333 10 9.33333V8ZM13.3333 8V12.6667H14.6667V8H13.3333ZM13.528 13.1387L14.8613 14.472L15.8053 13.528L14.472 12.1947L13.528 13.1387ZM15.8053 14.472L17.1387 13.1387L16.1947 12.1947L14.8613 13.528L15.8053 14.472ZM17.3333 12.6667V8H16V12.6667H17.3333Z" fill="#AFF4C6"/>
</svg>
