<svg width="20" height="20" viewBox="0 0 20 20" fill="none" xmlns="http://www.w3.org/2000/svg">
<path d="M18 4.66667H18.6667V4.39067L18.472 4.19467L18 4.66667ZM14 0.666667L14.472 0.194667L14.276 0H14V0.666667ZM3.33334 8.66667L3.80534 8.19467C3.7121 8.10119 3.59321 8.03751 3.46373 8.01168C3.33425 7.98586 3.20002 7.99906 3.07806 8.04962C2.95609 8.10018 2.85189 8.18581 2.77865 8.29566C2.70541 8.40551 2.66644 8.53464 2.66668 8.66667H3.33334ZM4.66668 10L4.19468 10.472L4.66668 10.9427L5.13868 10.472L4.66668 10ZM6.00001 8.66667H6.66668C6.66691 8.53464 6.62794 8.40551 6.5547 8.29566C6.48147 8.18581 6.37726 8.10018 6.25529 8.04962C6.13333 7.99906 5.9991 7.98586 5.86962 8.01168C5.74014 8.03751 5.62125 8.10119 5.52801 8.19467L6.00001 8.66667ZM8.66668 8.66667V8H8.00001V8.66667H8.66668ZM14 11.3333H13.3333V12H14V11.3333ZM2.66668 6.66667V2H1.33334V6.66667H2.66668ZM17.3333 4.66667V6.66667H18.6667V4.66667H17.3333ZM3.33334 1.33333H14V0H3.33334V1.33333ZM13.528 1.13867L17.528 5.13867L18.472 4.19467L14.472 0.194667L13.528 1.13867ZM2.66668 2C2.66668 1.82319 2.73691 1.65362 2.86194 1.5286C2.98696 1.40357 3.15653 1.33333 3.33334 1.33333V0C2.80291 0 2.2942 0.210714 1.91913 0.585786C1.54406 0.960859 1.33334 1.46957 1.33334 2H2.66668ZM1.33334 16V18H2.66668V16H1.33334ZM3.33334 20H16.6667V18.6667H3.33334V20ZM18.6667 18V16H17.3333V18H18.6667ZM16.6667 20C17.1971 20 17.7058 19.7893 18.0809 19.4142C18.456 19.0391 18.6667 18.5304 18.6667 18H17.3333C17.3333 18.1768 17.2631 18.3464 17.1381 18.4714C17.0131 18.5964 16.8435 18.6667 16.6667 18.6667V20ZM1.33334 18C1.33334 18.5304 1.54406 19.0391 1.91913 19.4142C2.2942 19.7893 2.80291 20 3.33334 20V18.6667C3.15653 18.6667 2.98696 18.5964 2.86194 18.4714C2.73691 18.3464 2.66668 18.1768 2.66668 18H1.33334ZM4.00001 14.6667V8.66667H2.66668V14.6667H4.00001ZM2.86134 9.13867L4.19468 10.472L5.13868 9.528L3.80534 8.19467L2.86134 9.13867ZM5.13868 10.472L6.47201 9.13867L5.52801 8.19467L4.19468 9.528L5.13868 10.472ZM5.33334 8.66667V14.6667H6.66668V8.66667H5.33334ZM8.66668 9.33333H10V8H8.66668V9.33333ZM9.33334 14.6667V11.3333H8.00001V14.6667H9.33334ZM9.33334 11.3333V8.66667H8.00001V11.3333H9.33334ZM10 10.6667H8.66668V12H10V10.6667ZM10.6667 10C10.6667 10.1768 10.5964 10.3464 10.4714 10.4714C10.3464 10.5964 10.1768 10.6667 10 10.6667V12C10.5304 12 11.0392 11.7893 11.4142 11.4142C11.7893 11.0391 12 10.5304 12 10H10.6667ZM10 9.33333C10.1768 9.33333 10.3464 9.40357 10.4714 9.5286C10.5964 9.65362 10.6667 9.82319 10.6667 10H12C12 9.46957 11.7893 8.96086 11.4142 8.58579C11.0392 8.21071 10.5304 8 10 8V9.33333ZM13.3333 8V11.3333H14.6667V8H13.3333ZM14 12H16.6667V10.6667H14V12ZM16 8V14.6667H17.3333V8H16Z" fill="#AFF4C6"/>
</svg>
