<svg width="24" height="24" viewBox="0 0 24 24" fill="none" xmlns="http://www.w3.org/2000/svg">
<path d="M9.52 3C9.78932 2.99998 10.0559 3.05436 10.3036 3.15987C10.5514 3.26537 10.7754 3.41984 10.962 3.614L11.082 3.751L12.48 5.5H19C19.5046 5.49984 19.9906 5.69041 20.3605 6.0335C20.7305 6.37659 20.9572 6.84684 20.995 7.35L21 7.5V9.03C21.2658 9.07638 21.5195 9.17607 21.7458 9.32308C21.9721 9.47009 22.1663 9.66137 22.3167 9.88542C22.4672 10.1095 22.5707 10.3616 22.6211 10.6267C22.6715 10.8918 22.6677 11.1644 22.61 11.428L22.572 11.575L20.172 19.575C20.0563 19.9601 19.8273 20.3014 19.5148 20.5543C19.2022 20.8073 18.8207 20.9601 18.42 20.993L18.256 21H4C3.49542 21.0002 3.00943 20.8096 2.63945 20.4665C2.26947 20.1234 2.04284 19.6532 2.005 19.15L2 19V5C1.99984 4.49542 2.19041 4.00943 2.5335 3.63945C2.87659 3.26947 3.34684 3.04284 3.85 3.005L4 3H9.52ZM20.656 11H6.744L4.344 19H18.256L20.656 11ZM9.519 5H4V13.187L4.828 10.425C4.95167 10.013 5.20486 9.65189 5.55 9.39519C5.89515 9.13849 6.31386 8.99991 6.744 9H19V7.5H12.48C12.1802 7.49996 11.8843 7.43254 11.6141 7.30272C11.3439 7.1729 11.1064 6.98401 10.919 6.75L9.519 5Z" fill="#0D99FF"/>
</svg>
