<svg width="24" height="24" viewBox="0 0 24 24" fill="none" xmlns="http://www.w3.org/2000/svg">
<path d="M4.5 15V12M4.5 12V9H7.5V12H4.5ZM10.5 15V9L13.5 15V9M19.5 9H16.5V15H19.5V12.6" stroke="#14AE5C" stroke-width="1.5" stroke-linecap="round" stroke-linejoin="round"/>
<path d="M4 6V3.6C4 3.44087 4.06321 3.28826 4.17574 3.17574C4.28826 3.06321 4.44087 3 4.6 3H19.4C19.5591 3 19.7117 3.06321 19.8243 3.17574C19.9368 3.28826 20 3.44087 20 3.6V6M4 18V20.4C4 20.5591 4.06321 20.7117 4.17574 20.8243C4.28826 20.9368 4.44087 21 4.6 21H19.4C19.5591 21 19.7117 20.9368 19.8243 20.8243C19.9368 20.7117 20 20.5591 20 20.4V18" stroke="#14AE5C" stroke-width="1.5" stroke-linecap="round"/>
</svg>
