<svg width="100" height="20" viewBox="0 0 100 20" fill="none" xmlns="http://www.w3.org/2000/svg">
<path fill-rule="evenodd" clip-rule="evenodd" d="M3.12498 1.25879L19.3737 1.47129L19.9112 2.09754L17.6362 18.1875L16.9237 18.7988L0.67373 18.5863L0.13623 17.9588L2.41248 1.86879L3.12498 1.25879ZM1.47498 17.3563L16.4725 17.5525L18.5725 2.70004L3.57498 2.50379L1.47498 17.3563ZM8.71373 12.9938L8.53873 14.2325L14.7887 14.315L14.9637 13.0775L8.71373 12.9938ZM10.8512 9.92254L6.27248 6.26004L5.40748 7.25504L8.70248 9.89504L4.67373 12.4375L5.25498 13.4525L10.8512 9.92254Z" fill="#E6E6E6"/>
<path d="M28.1602 8.12891V15.6875H27.0703V6.91016H28.0664L28.1602 8.12891ZM32.4316 10.0273V10.1504C32.4316 10.6113 32.377 11.0391 32.2676 11.4336C32.1582 11.8242 31.998 12.1641 31.7871 12.4531C31.5801 12.7422 31.3242 12.9668 31.0195 13.127C30.7148 13.2871 30.3652 13.3672 29.9707 13.3672C29.5684 13.3672 29.2129 13.3008 28.9043 13.168C28.5957 13.0352 28.334 12.8418 28.1191 12.5879C27.9043 12.334 27.7324 12.0293 27.6035 11.6738C27.4785 11.3184 27.3926 10.918 27.3457 10.4727V9.81641C27.3926 9.34766 27.4805 8.92773 27.6094 8.55664C27.7383 8.18555 27.9082 7.86914 28.1191 7.60742C28.334 7.3418 28.5938 7.14062 28.8984 7.00391C29.2031 6.86328 29.5547 6.79297 29.9531 6.79297C30.3516 6.79297 30.7051 6.87109 31.0137 7.02734C31.3223 7.17969 31.582 7.39844 31.793 7.68359C32.0039 7.96875 32.1621 8.31055 32.2676 8.70898C32.377 9.10352 32.4316 9.54297 32.4316 10.0273ZM31.3418 10.1504V10.0273C31.3418 9.71094 31.3086 9.41406 31.2422 9.13672C31.1758 8.85547 31.0723 8.60938 30.9316 8.39844C30.7949 8.18359 30.6191 8.01562 30.4043 7.89453C30.1895 7.76953 29.9336 7.70703 29.6367 7.70703C29.3633 7.70703 29.125 7.75391 28.9219 7.84766C28.7227 7.94141 28.5527 8.06836 28.4121 8.22852C28.2715 8.38477 28.1562 8.56445 28.0664 8.76758C27.9805 8.9668 27.916 9.17383 27.873 9.38867V10.9062C27.9512 11.1797 28.0605 11.4375 28.2012 11.6797C28.3418 11.918 28.5293 12.1113 28.7637 12.2598C28.998 12.4043 29.293 12.4766 29.6484 12.4766C29.9414 12.4766 30.1934 12.416 30.4043 12.2949C30.6191 12.1699 30.7949 12 30.9316 11.7852C31.0723 11.5703 31.1758 11.3242 31.2422 11.0469C31.3086 10.7656 31.3418 10.4668 31.3418 10.1504ZM33.5273 10.1504V10.0156C33.5273 9.55859 33.5938 9.13477 33.7266 8.74414C33.8594 8.34961 34.0508 8.00781 34.3008 7.71875C34.5508 7.42578 34.8535 7.19922 35.209 7.03906C35.5645 6.875 35.9629 6.79297 36.4043 6.79297C36.8496 6.79297 37.25 6.875 37.6055 7.03906C37.9648 7.19922 38.2695 7.42578 38.5195 7.71875C38.7734 8.00781 38.9668 8.34961 39.0996 8.74414C39.2324 9.13477 39.2988 9.55859 39.2988 10.0156V10.1504C39.2988 10.6074 39.2324 11.0312 39.0996 11.4219C38.9668 11.8125 38.7734 12.1543 38.5195 12.4473C38.2695 12.7363 37.9668 12.9629 37.6113 13.127C37.2598 13.2871 36.8613 13.3672 36.416 13.3672C35.9707 13.3672 35.5703 13.2871 35.2148 13.127C34.8594 12.9629 34.5547 12.7363 34.3008 12.4473C34.0508 12.1543 33.8594 11.8125 33.7266 11.4219C33.5938 11.0312 33.5273 10.6074 33.5273 10.1504ZM34.6113 10.0156V10.1504C34.6113 10.4668 34.6484 10.7656 34.7227 11.0469C34.7969 11.3242 34.9082 11.5703 35.0566 11.7852C35.209 12 35.3984 12.1699 35.625 12.2949C35.8516 12.416 36.1152 12.4766 36.416 12.4766C36.7129 12.4766 36.9727 12.416 37.1953 12.2949C37.4219 12.1699 37.6094 12 37.7578 11.7852C37.9062 11.5703 38.0176 11.3242 38.0918 11.0469C38.1699 10.7656 38.209 10.4668 38.209 10.1504V10.0156C38.209 9.70312 38.1699 9.4082 38.0918 9.13086C38.0176 8.84961 37.9043 8.60156 37.752 8.38672C37.6035 8.16797 37.416 7.99609 37.1895 7.87109C36.9668 7.74609 36.7051 7.68359 36.4043 7.68359C36.1074 7.68359 35.8457 7.74609 35.6191 7.87109C35.3965 7.99609 35.209 8.16797 35.0566 8.38672C34.9082 8.60156 34.7969 8.84961 34.7227 9.13086C34.6484 9.4082 34.6113 9.70312 34.6113 10.0156ZM42.2637 12.125L43.8926 6.91016H44.6074L44.4668 7.94727L42.8086 13.25H42.1113L42.2637 12.125ZM41.168 6.91016L42.5566 12.1836L42.6562 13.25H41.9238L40.084 6.91016H41.168ZM46.166 12.1426L47.4902 6.91016H48.5684L46.7285 13.25H46.002L46.166 12.1426ZM44.7656 6.91016L46.3594 12.0371L46.541 13.25H45.8496L44.1445 7.93555L44.0039 6.91016H44.7656ZM52.3125 13.3672C51.8711 13.3672 51.4707 13.293 51.1113 13.1445C50.7559 12.9922 50.4492 12.7793 50.1914 12.5059C49.9375 12.2324 49.7422 11.9082 49.6055 11.5332C49.4688 11.1582 49.4004 10.748 49.4004 10.3027V10.0566C49.4004 9.54102 49.4766 9.08203 49.6289 8.67969C49.7812 8.27344 49.9883 7.92969 50.25 7.64844C50.5117 7.36719 50.8086 7.1543 51.1406 7.00977C51.4727 6.86523 51.8164 6.79297 52.1719 6.79297C52.625 6.79297 53.0156 6.87109 53.3438 7.02734C53.6758 7.18359 53.9473 7.40234 54.1582 7.68359C54.3691 7.96094 54.5254 8.28906 54.627 8.66797C54.7285 9.04297 54.7793 9.45312 54.7793 9.89844V10.3848H50.0449V9.5H53.6953V9.41797C53.6797 9.13672 53.6211 8.86328 53.5195 8.59766C53.4219 8.33203 53.2656 8.11328 53.0508 7.94141C52.8359 7.76953 52.543 7.68359 52.1719 7.68359C51.9258 7.68359 51.6992 7.73633 51.4922 7.8418C51.2852 7.94336 51.1074 8.0957 50.959 8.29883C50.8105 8.50195 50.6953 8.75 50.6133 9.04297C50.5312 9.33594 50.4902 9.67383 50.4902 10.0566V10.3027C50.4902 10.6035 50.5312 10.8867 50.6133 11.1523C50.6992 11.4141 50.8223 11.6445 50.9824 11.8438C51.1465 12.043 51.3438 12.1992 51.5742 12.3125C51.8086 12.4258 52.0742 12.4824 52.3711 12.4824C52.7539 12.4824 53.0781 12.4043 53.3438 12.248C53.6094 12.0918 53.8418 11.8828 54.041 11.6211L54.6973 12.1426C54.5605 12.3496 54.3867 12.5469 54.1758 12.7344C53.9648 12.9219 53.7051 13.0742 53.3965 13.1914C53.0918 13.3086 52.7305 13.3672 52.3125 13.3672ZM57.1289 7.90625V13.25H56.0449V6.91016H57.0996L57.1289 7.90625ZM59.1094 6.875L59.1035 7.88281C59.0137 7.86328 58.9277 7.85156 58.8457 7.84766C58.7676 7.83984 58.6777 7.83594 58.5762 7.83594C58.3262 7.83594 58.1055 7.875 57.9141 7.95312C57.7227 8.03125 57.5605 8.14062 57.4277 8.28125C57.2949 8.42188 57.1895 8.58984 57.1113 8.78516C57.0371 8.97656 56.9883 9.1875 56.9648 9.41797L56.6602 9.59375C56.6602 9.21094 56.6973 8.85156 56.7715 8.51562C56.8496 8.17969 56.9688 7.88281 57.1289 7.625C57.2891 7.36328 57.4922 7.16016 57.7383 7.01562C57.9883 6.86719 58.2852 6.79297 58.6289 6.79297C58.707 6.79297 58.7969 6.80273 58.8984 6.82227C59 6.83789 59.0703 6.85547 59.1094 6.875ZM63.8027 11.5684C63.8027 11.4121 63.7676 11.2676 63.6973 11.1348C63.6309 10.998 63.4922 10.875 63.2812 10.7656C63.0742 10.6523 62.7617 10.5547 62.3438 10.4727C61.9922 10.3984 61.6738 10.3105 61.3887 10.209C61.1074 10.1074 60.8672 9.98438 60.668 9.83984C60.4727 9.69531 60.3223 9.52539 60.2168 9.33008C60.1113 9.13477 60.0586 8.90625 60.0586 8.64453C60.0586 8.39453 60.1133 8.1582 60.2227 7.93555C60.3359 7.71289 60.4941 7.51562 60.6973 7.34375C60.9043 7.17188 61.1523 7.03711 61.4414 6.93945C61.7305 6.8418 62.0527 6.79297 62.4082 6.79297C62.916 6.79297 63.3496 6.88281 63.709 7.0625C64.0684 7.24219 64.3438 7.48242 64.5352 7.7832C64.7266 8.08008 64.8223 8.41016 64.8223 8.77344H63.7383C63.7383 8.59766 63.6855 8.42773 63.5801 8.26367C63.4785 8.0957 63.3281 7.95703 63.1289 7.84766C62.9336 7.73828 62.6934 7.68359 62.4082 7.68359C62.1074 7.68359 61.8633 7.73047 61.6758 7.82422C61.4922 7.91406 61.3574 8.0293 61.2715 8.16992C61.1895 8.31055 61.1484 8.45898 61.1484 8.61523C61.1484 8.73242 61.168 8.83789 61.207 8.93164C61.25 9.02148 61.3242 9.10547 61.4297 9.18359C61.5352 9.25781 61.6836 9.32812 61.875 9.39453C62.0664 9.46094 62.3105 9.52734 62.6074 9.59375C63.127 9.71094 63.5547 9.85156 63.8906 10.0156C64.2266 10.1797 64.4766 10.3809 64.6406 10.6191C64.8047 10.8574 64.8867 11.1465 64.8867 11.4863C64.8867 11.7637 64.8281 12.0176 64.7109 12.248C64.5977 12.4785 64.4316 12.6777 64.2129 12.8457C63.998 13.0098 63.7402 13.1387 63.4395 13.2324C63.1426 13.3223 62.8086 13.3672 62.4375 13.3672C61.8789 13.3672 61.4062 13.2676 61.0195 13.0684C60.6328 12.8691 60.3398 12.6113 60.1406 12.2949C59.9414 11.9785 59.8418 11.6445 59.8418 11.293H60.9316C60.9473 11.5898 61.0332 11.8262 61.1895 12.002C61.3457 12.1738 61.5371 12.2969 61.7637 12.3711C61.9902 12.4414 62.2148 12.4766 62.4375 12.4766C62.7344 12.4766 62.9824 12.4375 63.1816 12.3594C63.3848 12.2812 63.5391 12.1738 63.6445 12.0371C63.75 11.9004 63.8027 11.7441 63.8027 11.5684ZM67.3945 4.25V13.25H66.3105V4.25H67.3945ZM67.1367 9.83984L66.6855 9.82227C66.6895 9.38867 66.7539 8.98828 66.8789 8.62109C67.0039 8.25 67.1797 7.92773 67.4062 7.6543C67.6328 7.38086 67.9023 7.16992 68.2148 7.02148C68.5312 6.86914 68.8809 6.79297 69.2637 6.79297C69.5762 6.79297 69.8574 6.83594 70.1074 6.92188C70.3574 7.00391 70.5703 7.13672 70.7461 7.32031C70.9258 7.50391 71.0625 7.74219 71.1562 8.03516C71.25 8.32422 71.2969 8.67773 71.2969 9.0957V13.25H70.207V9.08398C70.207 8.75195 70.1582 8.48633 70.0605 8.28711C69.9629 8.08398 69.8203 7.9375 69.6328 7.84766C69.4453 7.75391 69.2148 7.70703 68.9414 7.70703C68.6719 7.70703 68.4258 7.76367 68.2031 7.87695C67.9844 7.99023 67.7949 8.14648 67.6348 8.3457C67.4785 8.54492 67.3555 8.77344 67.2656 9.03125C67.1797 9.28516 67.1367 9.55469 67.1367 9.83984ZM75.5508 13.3672C75.1094 13.3672 74.709 13.293 74.3496 13.1445C73.9941 12.9922 73.6875 12.7793 73.4297 12.5059C73.1758 12.2324 72.9805 11.9082 72.8438 11.5332C72.707 11.1582 72.6387 10.748 72.6387 10.3027V10.0566C72.6387 9.54102 72.7148 9.08203 72.8672 8.67969C73.0195 8.27344 73.2266 7.92969 73.4883 7.64844C73.75 7.36719 74.0469 7.1543 74.3789 7.00977C74.7109 6.86523 75.0547 6.79297 75.4102 6.79297C75.8633 6.79297 76.2539 6.87109 76.582 7.02734C76.9141 7.18359 77.1855 7.40234 77.3965 7.68359C77.6074 7.96094 77.7637 8.28906 77.8652 8.66797C77.9668 9.04297 78.0176 9.45312 78.0176 9.89844V10.3848H73.2832V9.5H76.9336V9.41797C76.918 9.13672 76.8594 8.86328 76.7578 8.59766C76.6602 8.33203 76.5039 8.11328 76.2891 7.94141C76.0742 7.76953 75.7812 7.68359 75.4102 7.68359C75.1641 7.68359 74.9375 7.73633 74.7305 7.8418C74.5234 7.94336 74.3457 8.0957 74.1973 8.29883C74.0488 8.50195 73.9336 8.75 73.8516 9.04297C73.7695 9.33594 73.7285 9.67383 73.7285 10.0566V10.3027C73.7285 10.6035 73.7695 10.8867 73.8516 11.1523C73.9375 11.4141 74.0605 11.6445 74.2207 11.8438C74.3848 12.043 74.582 12.1992 74.8125 12.3125C75.0469 12.4258 75.3125 12.4824 75.6094 12.4824C75.9922 12.4824 76.3164 12.4043 76.582 12.248C76.8477 12.0918 77.0801 11.8828 77.2793 11.6211L77.9355 12.1426C77.7988 12.3496 77.625 12.5469 77.4141 12.7344C77.2031 12.9219 76.9434 13.0742 76.6348 13.1914C76.3301 13.3086 75.9688 13.3672 75.5508 13.3672ZM80.4609 4.25V13.25H79.3711V4.25H80.4609ZM83.3789 4.25V13.25H82.2891V4.25H83.3789Z" fill="white"/>
</svg>
