<svg width="34" height="34" viewBox="0 0 34 34" fill="none" xmlns="http://www.w3.org/2000/svg">
<path d="M24.0833 9.91667C24.8348 9.91667 25.5554 9.61816 26.0868 9.0868C26.6181 8.55545 26.9166 7.83478 26.9166 7.08333C26.9166 6.33189 26.6181 5.61122 26.0868 5.07986C25.5554 4.54851 24.8348 4.25 24.0833 4.25C23.3319 4.25 22.6112 4.54851 22.0798 5.07986C21.5485 5.61122 21.25 6.33189 21.25 7.08333C21.25 7.83478 21.5485 8.55545 22.0798 9.0868C22.6112 9.61816 23.3319 9.91667 24.0833 9.91667ZM24.0833 9.91667V11.3333C24.0833 14.875 21.25 15.5833 21.25 15.5833L12.75 18.4167C12.75 18.4167 9.91665 19.125 9.91665 22.6667V24.0833M9.91665 9.91667C10.6681 9.91667 11.3888 9.61816 11.9201 9.0868C12.4515 8.55545 12.75 7.83478 12.75 7.08333C12.75 6.33189 12.4515 5.61122 11.9201 5.07986C11.3888 4.54851 10.6681 4.25 9.91665 4.25C9.1652 4.25 8.44453 4.54851 7.91318 5.07986C7.38182 5.61122 7.08331 6.33189 7.08331 7.08333C7.08331 7.83478 7.38182 8.55545 7.91318 9.0868C8.44453 9.61816 9.1652 9.91667 9.91665 9.91667ZM9.91665 9.91667V24.0833M9.91665 24.0833C10.6681 24.0833 11.3888 24.3818 11.9201 24.9132C12.4515 25.4446 12.75 26.1652 12.75 26.9167C12.75 27.6681 12.4515 28.3888 11.9201 28.9201C11.3888 29.4515 10.6681 29.75 9.91665 29.75C9.1652 29.75 8.44453 29.4515 7.91318 28.9201C7.38182 28.3888 7.08331 27.6681 7.08331 26.9167C7.08331 26.1652 7.38182 25.4446 7.91318 24.9132C8.44453 24.3818 9.1652 24.0833 9.91665 24.0833Z" stroke="#E6E6E6" stroke-width="2" stroke-linecap="round" stroke-linejoin="round"/>
</svg>
