<svg width="24" height="24" viewBox="0 0 24 24" fill="none" xmlns="http://www.w3.org/2000/svg">
<path d="M4.5 15H6.5C6.89782 15 7.27936 14.842 7.56066 14.5607C7.84196 14.2794 8 13.8978 8 13.5C8 13.1022 7.84196 12.7206 7.56066 12.4393C7.27936 12.158 6.89782 12 6.5 12H6C5.60218 12 5.22064 11.842 4.93934 11.5607C4.65804 11.2794 4.5 10.8978 4.5 10.5C4.5 10.1022 4.65804 9.72064 4.93934 9.43934C5.22064 9.15804 5.60218 9 6 9H7.5M10.5 9L12 15L13.5 9M19.5 9H16.5V15H19.5V12.6" stroke="#FFA629" stroke-width="1.5" stroke-linecap="round" stroke-linejoin="round"/>
<path d="M4 6V3.6C4 3.44087 4.06321 3.28826 4.17574 3.17574C4.28826 3.06321 4.44087 3 4.6 3H19.4C19.5591 3 19.7117 3.06321 19.8243 3.17574C19.9368 3.28826 20 3.44087 20 3.6V6M4 18V20.4C4 20.5591 4.06321 20.7117 4.17574 20.8243C4.28826 20.9368 4.44087 21 4.6 21H19.4C19.5591 21 19.7117 20.9368 19.8243 20.8243C19.9368 20.7117 20 20.5591 20 20.4V18" stroke="#FFA629" stroke-width="1.5" stroke-linecap="round"/>
</svg>
