<svg width="24" height="24" viewBox="0 0 24 24" fill="none" xmlns="http://www.w3.org/2000/svg">
<path d="M4 6V3.6C4 3.44087 4.06321 3.28826 4.17574 3.17574C4.28826 3.06321 4.44087 3 4.6 3H19.4C19.5591 3 19.7117 3.06321 19.8243 3.17574C19.9368 3.28826 20 3.44087 20 3.6V6M4 18V20.4C4 20.5591 4.06321 20.7117 4.17574 20.8243C4.28826 20.9368 4.44087 21 4.6 21H19.4C19.5591 21 19.7117 20.9368 19.8243 20.8243C19.9368 20.7117 20 20.5591 20 20.4V18" stroke="#E4CCFF" stroke-width="1.5" stroke-linecap="round"/>
<path d="M13.5 15V9H15.9C16.0591 9 16.2117 9.06321 16.3243 9.17574C16.4368 9.28826 16.5 9.44087 16.5 9.6V10.5C16.5 10.8978 16.342 11.2794 16.0607 11.5607C15.7794 11.842 15.3978 12 15 12" stroke="#E4CCFF" stroke-width="1.5" stroke-linecap="round" stroke-linejoin="round"/>
<path d="M13.5 15H15.9C16.0591 15 16.2117 14.9368 16.3243 14.8243C16.4368 14.7117 16.5 14.5591 16.5 14.4V13.5C16.5 13.1022 16.342 12.7206 16.0607 12.4393C15.7794 12.158 15.3978 12 15 12H13.5M19.5 15V12M19.5 12V9H22.5V12H19.5ZM1.5 9V15L3 12L4.5 15V9M10.5 9H7.5V15H10.5M7.5 12H9.5" stroke="#E4CCFF" stroke-width="1.5" stroke-linecap="round" stroke-linejoin="round"/>
</svg>
